<?xml version="1.0" encoding="UTF-8" standalone="no"?>
<svg
   version="1.1"
   width="307.99063"
   height="171.69791"
   id="svg89"
   sodipodi:docname="dynamics1.1.svg"
   inkscape:version="1.1 (c68e22c387, 2021-05-23)"
   xmlns:inkscape="http://www.inkscape.org/namespaces/inkscape"
   xmlns:sodipodi="http://sodipodi.sourceforge.net/DTD/sodipodi-0.dtd"
   xmlns="http://www.w3.org/2000/svg"
   xmlns:svg="http://www.w3.org/2000/svg">
  <sodipodi:namedview
     id="namedview91"
     pagecolor="#ffffff"
     bordercolor="#666666"
     borderopacity="1.0"
     inkscape:pageshadow="2"
     inkscape:pageopacity="0.0"
     inkscape:pagecheckerboard="0"
     showgrid="false"
     inkscape:zoom="1.7795485"
     inkscape:cx="25.006343"
     inkscape:cy="77.547761"
     inkscape:window-width="1440"
     inkscape:window-height="898"
     inkscape:window-x="-6"
     inkscape:window-y="-6"
     inkscape:window-maximized="1"
     inkscape:current-layer="g87"
     fit-margin-top="0"
     fit-margin-left="0"
     fit-margin-right="0"
     fit-margin-bottom="0" />
  <defs
     id="defs5">
    <clipPath
       id="FLhWzxMbCgIg">
      <path
         fill="none"
         stroke="none"
         d="M 0,0 H 1060 V 753 H 0 Z"
         id="path2" />
    </clipPath>
    <clipPath
       clipPathUnits="userSpaceOnUse"
       id="clipPath218">
      <rect
         style="fill:none;stroke-width:2.5"
         id="rect220"
         width="344.90137"
         height="204.23882"
         x="298.01382"
         y="252.71573"
         ry="0" />
    </clipPath>
    <clipPath
       clipPathUnits="userSpaceOnUse"
       id="clipPath1421">
      <rect
         style="fill:#000000;fill-opacity:0.164659;stroke:#440423;stroke-width:0.866494"
         id="rect1423"
         width="307.99063"
         height="171.69791"
         x="311.49573"
         y="269.3775" />
    </clipPath>
  </defs>
  <g
     transform="translate(-311.49573,-269.3775)"
     clip-path="url(#FLhWzxMbCgIg)"
     id="g87">
    <g
       id="g85"
       clip-path="url(#clipPath1421)">
      <rect
         fill="#8ac6d0"
         stroke="none"
         x="0"
         y="0"
         width="1060"
         height="753"
         fill-opacity="1"
         id="rect7" />
      <path
         fill="#000000"
         stroke="none"
         paint-order="stroke fill markers"
         fill-rule="evenodd"
         d="M 456.03636,276.06704 456,433 l 156.93296,0.0364 0.0364,-156.93297 z"
         fill-opacity="0.6"
         id="path9" />
      <path
         fill="none"
         stroke="#000000"
         paint-order="fill stroke markers"
         d="M 456.03636,276.06704 456,433 l 156.93296,0.0364 0.0364,-156.93297 z"
         stroke-opacity="0.8"
         stroke-linecap="round"
         stroke-linejoin="round"
         stroke-miterlimit="10"
         stroke-width="2.5"
         id="path11" />
      <path
         fill="none"
         stroke="#000000"
         paint-order="fill stroke markers"
         d="M 456.03636,276.06704 456,433"
         stroke-opacity="0.8"
         stroke-linecap="round"
         stroke-linejoin="round"
         stroke-miterlimit="10"
         stroke-width="2.5"
         id="path13" />
      <path
         fill="none"
         stroke="#000000"
         paint-order="fill stroke markers"
         d="m 456,433 156.93296,0.0364"
         stroke-opacity="0.8"
         stroke-linecap="round"
         stroke-linejoin="round"
         stroke-miterlimit="10"
         stroke-width="2.5"
         id="path15" />
      <path
         fill="none"
         stroke="#000000"
         paint-order="fill stroke markers"
         d="m 612.93296,433.03636 0.0364,-156.93297"
         stroke-opacity="0.8"
         stroke-linecap="round"
         stroke-linejoin="round"
         stroke-miterlimit="10"
         stroke-width="2.5"
         id="path17" />
      <path
         fill="none"
         stroke="#000000"
         paint-order="fill stroke markers"
         d="m 612.96932,276.10339 -156.93296,-0.0363"
         stroke-opacity="0.8"
         stroke-linecap="round"
         stroke-linejoin="round"
         stroke-miterlimit="10"
         stroke-width="2.5"
         id="path19" />
      <path
         fill="none"
         stroke="#000000"
         paint-order="fill stroke markers"
         d="m 317.32956,318.17446 121.69702,0.13209"
         stroke-opacity="0.8"
         stroke-linecap="round"
         stroke-linejoin="round"
         stroke-miterlimit="10"
         stroke-width="2.5"
         id="path21" />
      <path
         fill="#000000"
         stroke="none"
         paint-order="stroke fill markers"
         fill-rule="evenodd"
         d="m 456.02657,318.325 -17.0046,4.23155 0.009,-8.5 z"
         fill-opacity="0.8"
         id="path23" />
      <path
         fill="none"
         stroke="#000000"
         paint-order="fill stroke markers"
         d="m 456.52219,339.22443 -122.19263,0.003"
         stroke-opacity="0.8"
         stroke-linecap="round"
         stroke-linejoin="round"
         stroke-miterlimit="10"
         stroke-width="2.5"
         id="path25" />
      <path
         fill="#000000"
         stroke="none"
         paint-order="stroke fill markers"
         fill-rule="evenodd"
         d="m 317.32956,339.22817 16.99989,-4.25046 2.2e-4,8.5 z"
         fill-opacity="0.8"
         id="path27" />
      <path
         fill="#1565c0"
         stroke="none"
         paint-order="stroke fill markers"
         d="m 461.03636,276.06704 c 0,2.76142 -2.23858,5 -5,5 -2.76142,0 -5,-2.23858 -5,-5 0,-2.76143 2.23858,-5 5,-5 2.76142,0 5,2.23857 5,5 z"
         fill-opacity="1"
         id="path29" />
      <path
         fill="none"
         stroke="#000000"
         paint-order="fill stroke markers"
         d="m 461.03636,276.06704 c 0,2.76142 -2.23858,5 -5,5 -2.76142,0 -5,-2.23858 -5,-5 0,-2.76143 2.23858,-5 5,-5 2.76142,0 5,2.23857 5,5 z"
         stroke-opacity="1"
         stroke-linecap="round"
         stroke-linejoin="round"
         stroke-miterlimit="10"
         id="path31" />
      <path
         fill="#1565c0"
         stroke="none"
         paint-order="stroke fill markers"
         d="m 461,433 c 0,2.76142 -2.23858,5 -5,5 -2.76142,0 -5,-2.23858 -5,-5 0,-2.76142 2.23858,-5 5,-5 2.76142,0 5,2.23858 5,5 z"
         fill-opacity="1"
         id="path33" />
      <path
         fill="none"
         stroke="#000000"
         paint-order="fill stroke markers"
         d="m 461,433 c 0,2.76142 -2.23858,5 -5,5 -2.76142,0 -5,-2.23858 -5,-5 0,-2.76142 2.23858,-5 5,-5 2.76142,0 5,2.23858 5,5 z"
         stroke-opacity="1"
         stroke-linecap="round"
         stroke-linejoin="round"
         stroke-miterlimit="10"
         id="path35" />
      <path
         fill="#616161"
         stroke="none"
         paint-order="stroke fill markers"
         d="m 617.93296,433.03636 c 0,2.76142 -2.23857,5 -5,5 -2.76142,0 -5,-2.23858 -5,-5 0,-2.76142 2.23858,-5 5,-5 2.76143,0 5,2.23858 5,5 z"
         fill-opacity="1"
         id="path37" />
      <path
         fill="none"
         stroke="#000000"
         paint-order="fill stroke markers"
         d="m 617.93296,433.03636 c 0,2.76142 -2.23857,5 -5,5 -2.76142,0 -5,-2.23858 -5,-5 0,-2.76142 2.23858,-5 5,-5 2.76143,0 5,2.23858 5,5 z"
         stroke-opacity="1"
         stroke-linecap="round"
         stroke-linejoin="round"
         stroke-miterlimit="10"
         id="path39" />
      <path
         fill="#616161"
         stroke="none"
         paint-order="stroke fill markers"
         d="m 617.96932,276.10339 c 0,2.76143 -2.23857,5 -5,5 -2.76142,0 -5,-2.23857 -5,-5 0,-2.76142 2.23858,-5 5,-5 2.76143,0 5,2.23858 5,5 z"
         fill-opacity="1"
         id="path41" />
      <path
         fill="none"
         stroke="#000000"
         paint-order="fill stroke markers"
         d="m 617.96932,276.10339 c 0,2.76143 -2.23857,5 -5,5 -2.76142,0 -5,-2.23857 -5,-5 0,-2.76142 2.23858,-5 5,-5 2.76143,0 5,2.23858 5,5 z"
         stroke-opacity="1"
         stroke-linecap="round"
         stroke-linejoin="round"
         stroke-miterlimit="10"
         id="path43" />
      <path
         fill="#1565c0"
         stroke="none"
         paint-order="stroke fill markers"
         d="m 322.32956,318.17446 c 0,2.76142 -2.23858,5 -5,5 -2.76142,0 -5,-2.23858 -5,-5 0,-2.76143 2.23858,-5 5,-5 2.76142,0 5,2.23857 5,5 z"
         fill-opacity="1"
         id="path45" />
      <path
         fill="none"
         stroke="#000000"
         paint-order="fill stroke markers"
         d="m 322.32956,318.17446 c 0,2.76142 -2.23858,5 -5,5 -2.76142,0 -5,-2.23858 -5,-5 0,-2.76143 2.23858,-5 5,-5 2.76142,0 5,2.23857 5,5 z"
         stroke-opacity="1"
         stroke-linecap="round"
         stroke-linejoin="round"
         stroke-miterlimit="10"
         id="path47" />
      <path
         fill="#1565c0"
         stroke="none"
         paint-order="stroke fill markers"
         d="m 461.02657,318.325 c 0,2.76143 -2.23858,5 -5,5 -2.76142,0 -5,-2.23857 -5,-5 0,-2.76142 2.23858,-5 5,-5 2.76142,0 5,2.23858 5,5 z"
         fill-opacity="1"
         id="path49" />
      <path
         fill="none"
         stroke="#000000"
         paint-order="fill stroke markers"
         d="m 461.02657,318.325 c 0,2.76143 -2.23858,5 -5,5 -2.76142,0 -5,-2.23857 -5,-5 0,-2.76142 2.23858,-5 5,-5 2.76142,0 5,2.23858 5,5 z"
         stroke-opacity="1"
         stroke-linecap="round"
         stroke-linejoin="round"
         stroke-miterlimit="10"
         id="path51" />
      <path
         fill="#1565c0"
         stroke="none"
         paint-order="stroke fill markers"
         d="m 322.32956,339.22817 c 0,2.76142 -2.23858,5 -5,5 -2.76142,0 -5,-2.23858 -5,-5 0,-2.76143 2.23858,-5 5,-5 2.76142,0 5,2.23857 5,5 z"
         fill-opacity="1"
         id="path53" />
      <path
         fill="none"
         stroke="#000000"
         paint-order="fill stroke markers"
         d="m 322.32956,339.22817 c 0,2.76142 -2.23858,5 -5,5 -2.76142,0 -5,-2.23858 -5,-5 0,-2.76143 2.23858,-5 5,-5 2.76142,0 5,2.23857 5,5 z"
         stroke-opacity="1"
         stroke-linecap="round"
         stroke-linejoin="round"
         stroke-miterlimit="10"
         id="path55" />
      <path
         fill="#1565c0"
         stroke="none"
         paint-order="stroke fill markers"
         d="m 461.52219,339.22443 c 0,2.76142 -2.23858,5 -5,5 -2.76143,0 -5,-2.23858 -5,-5 0,-2.76142 2.23857,-5 5,-5 2.76142,0 5,2.23858 5,5 z"
         fill-opacity="1"
         id="path57" />
      <path
         fill="none"
         stroke="#000000"
         paint-order="fill stroke markers"
         d="m 461.52219,339.22443 c 0,2.76142 -2.23858,5 -5,5 -2.76143,0 -5,-2.23858 -5,-5 0,-2.76142 2.23857,-5 5,-5 2.76142,0 5,2.23858 5,5 z"
         stroke-opacity="1"
         stroke-linecap="round"
         stroke-linejoin="round"
         stroke-miterlimit="10"
         id="path59" />
      <g
         transform="scale(25)"
         id="g69">
        <g
           transform="translate(13.2595,12.044)"
           id="g63">
          <path
             fill="#000000"
             stroke="none"
             paint-order="stroke fill markers"
             d="M 0.554,-0.588 H 0.232 q -0.045,0 -0.045,-0.03 0,-0.031 0.045,-0.031 H 0.58 Q 0.577,-0.652 0.5685,-0.668 0.56,-0.684 0.56,-0.693 q 0,-0.012 0.009,-0.0215 0.009,-0.0095 0.022,-0.0095 0.009,0 0.0155,0.005 0.0065,0.005 0.0085,0.008 0.002,0.003 0.007,0.012 0.013,0.028 0.052,0.051 0.023,0.009 0.023,0.029 0,0.01 -0.0055,0.0165 -0.0055,0.0065 -0.01,0.009 Q 0.677,-0.591 0.665,-0.586 0.622,-0.567 0.582,-0.53 q -0.017,0.017 -0.029,0.017 -0.012,0 -0.021,-0.009 -0.009,-0.009 -0.009,-0.021 0,-0.013 0.012,-0.025 L 0.54,-0.574 Q 0.545,-0.58 0.554,-0.588 Z"
             id="path61" />
        </g>
        <g
           transform="translate(13.2,12.286)"
           id="g67">
          <path
             fill="#000000"
             stroke="none"
             paint-order="stroke fill markers"
             d="m 0.366,-0.317 -0.067,0.266 q 0.02,0.004 0.063,0.004 h 0.033 q 0.033,0 0.033,0.018 Q 0.428,0 0.398,0 0.384,0 0.3555,-0.001 0.327,-0.002 0.312,-0.002 q -0.015,0 -0.045,-5e-4 -0.03,-5e-4 -0.045,-5e-4 -0.014,0 -0.041,5e-4 -0.027,5e-4 -0.04,5e-4 -0.013,0 -0.038,0.001 Q 0.078,0 0.065,0 0.043,0 0.043,-0.018 q 0,-0.02 0.012,-0.027 0.004,-0.002 0.032,-0.002 0.036,0 0.053,-0.001 Q 0.153,-0.049 0.1565,-0.052 0.16,-0.055 0.163,-0.067 l 0.141,-0.564 q -0.042,-0.002 -0.061,-0.002 -0.017,0 -0.0235,-5e-4 Q 0.213,-0.634 0.2075,-0.638 0.202,-0.642 0.202,-0.651 q 0,-0.018 0.009,-0.024 0.006,-0.005 0.027,-0.005 h 0.538 q 0.033,0 0.033,0.018 L 0.808,-0.646 0.79,-0.467 Q 0.789,-0.456 0.7875,-0.4515 0.786,-0.447 0.781,-0.443 q -0.005,0.004 -0.015,0.004 -0.024,0 -0.024,-0.019 L 0.744,-0.48 q 0.002,-0.022 0.002,-0.036 0,-0.066 -0.032,-0.0915 Q 0.682,-0.633 0.597,-0.633 H 0.478 q -0.021,0 -0.034,0.002 l -0.066,0.267 h 0.056 q 0.056,0 0.0825,-0.018 Q 0.543,-0.4 0.557,-0.455 0.561,-0.471 0.5655,-0.476 0.57,-0.481 0.583,-0.481 q 0.024,0 0.024,0.018 0,0.003 -0.004,0.016 L 0.547,-0.224 Q 0.544,-0.213 0.5425,-0.2095 0.541,-0.206 0.536,-0.203 0.531,-0.2 0.522,-0.2 q -0.023,0 -0.023,-0.018 0,-0.004 0.003,-0.014 0.006,-0.024 0.006,-0.042 0,-0.025 -0.016,-0.034 -0.016,-0.009 -0.061,-0.009 z"
             id="path65" />
        </g>
      </g>
      <g
         transform="scale(25)"
         id="g71" />
      <g
         transform="scale(25)"
         id="g81">
        <g
           transform="translate(16.9395,14.684)"
           id="g75">
          <path
             fill="#000000"
             stroke="none"
             paint-order="stroke fill markers"
             d="M 0.554,-0.588 H 0.232 q -0.045,0 -0.045,-0.03 0,-0.031 0.045,-0.031 H 0.58 Q 0.577,-0.652 0.5685,-0.668 0.56,-0.684 0.56,-0.693 q 0,-0.012 0.009,-0.0215 0.009,-0.0095 0.022,-0.0095 0.009,0 0.0155,0.005 0.0065,0.005 0.0085,0.008 0.002,0.003 0.007,0.012 0.013,0.028 0.052,0.051 0.023,0.009 0.023,0.029 0,0.01 -0.0055,0.0165 -0.0055,0.0065 -0.01,0.009 Q 0.677,-0.591 0.665,-0.586 0.622,-0.567 0.582,-0.53 q -0.017,0.017 -0.029,0.017 -0.012,0 -0.021,-0.009 -0.009,-0.009 -0.009,-0.021 0,-0.013 0.012,-0.025 L 0.54,-0.574 Q 0.545,-0.58 0.554,-0.588 Z"
             id="path73" />
        </g>
        <g
           transform="translate(16.88,14.926)"
           id="g79">
          <path
             fill="#000000"
             stroke="none"
             paint-order="stroke fill markers"
             d="m 0.366,-0.317 -0.067,0.266 q 0.02,0.004 0.063,0.004 h 0.033 q 0.033,0 0.033,0.018 Q 0.428,0 0.398,0 0.384,0 0.3555,-0.001 0.327,-0.002 0.312,-0.002 q -0.015,0 -0.045,-5e-4 -0.03,-5e-4 -0.045,-5e-4 -0.014,0 -0.041,5e-4 -0.027,5e-4 -0.04,5e-4 -0.013,0 -0.038,0.001 Q 0.078,0 0.065,0 0.043,0 0.043,-0.018 q 0,-0.02 0.012,-0.027 0.004,-0.002 0.032,-0.002 0.036,0 0.053,-0.001 Q 0.153,-0.049 0.1565,-0.052 0.16,-0.055 0.163,-0.067 l 0.141,-0.564 q -0.042,-0.002 -0.061,-0.002 -0.017,0 -0.0235,-5e-4 Q 0.213,-0.634 0.2075,-0.638 0.202,-0.642 0.202,-0.651 q 0,-0.018 0.009,-0.024 0.006,-0.005 0.027,-0.005 h 0.538 q 0.033,0 0.033,0.018 L 0.808,-0.646 0.79,-0.467 Q 0.789,-0.456 0.7875,-0.4515 0.786,-0.447 0.781,-0.443 q -0.005,0.004 -0.015,0.004 -0.024,0 -0.024,-0.019 L 0.744,-0.48 q 0.002,-0.022 0.002,-0.036 0,-0.066 -0.032,-0.0915 Q 0.682,-0.633 0.597,-0.633 H 0.478 q -0.021,0 -0.034,0.002 l -0.066,0.267 h 0.056 q 0.056,0 0.0825,-0.018 Q 0.543,-0.4 0.557,-0.455 0.561,-0.471 0.5655,-0.476 0.57,-0.481 0.583,-0.481 q 0.024,0 0.024,0.018 0,0.003 -0.004,0.016 L 0.547,-0.224 Q 0.544,-0.213 0.5425,-0.2095 0.541,-0.206 0.536,-0.203 0.531,-0.2 0.522,-0.2 q -0.023,0 -0.023,-0.018 0,-0.004 0.003,-0.014 0.006,-0.024 0.006,-0.042 0,-0.025 -0.016,-0.034 -0.016,-0.009 -0.061,-0.009 z"
             id="path77" />
        </g>
      </g>
      <g
         transform="scale(25)"
         id="g83" />
    </g>
  </g>
</svg>
