<?xml version="1.0" encoding="UTF-8" standalone="no"?>
<svg
   version="1.1"
   width="583.81104"
   height="93.87365"
   id="svg223"
   sodipodi:docname="mechanics2.3.svg"
   inkscape:version="1.1 (c68e22c387, 2021-05-23)"
   xmlns:inkscape="http://www.inkscape.org/namespaces/inkscape"
   xmlns:sodipodi="http://sodipodi.sourceforge.net/DTD/sodipodi-0.dtd"
   xmlns="http://www.w3.org/2000/svg"
   xmlns:svg="http://www.w3.org/2000/svg">
  <sodipodi:namedview
     id="namedview225"
     pagecolor="#7e97b8"
     bordercolor="#666666"
     borderopacity="1.0"
     inkscape:pageshadow="2"
     inkscape:pageopacity="0"
     inkscape:pagecheckerboard="0"
     showgrid="false"
     fit-margin-top="32"
     fit-margin-left="0"
     fit-margin-right="32"
     fit-margin-bottom="32"
     inkscape:zoom="0.64"
     inkscape:cx="494.53125"
     inkscape:cy="256.25"
     inkscape:window-width="1440"
     inkscape:window-height="898"
     inkscape:window-x="-6"
     inkscape:window-y="-6"
     inkscape:window-maximized="1"
     inkscape:current-layer="svg223"
     lock-margins="false" />
  <defs
     id="defs121">
    <clipPath
       id="SdFFEghIIvvU">
      <path
         fill="none"
         stroke="none"
         d="M 0,0 H 1060 V 753 H 0 Z"
         id="path118" />
    </clipPath>
    <clipPath
       clipPathUnits="userSpaceOnUse"
       id="clipPath1688">
      <rect
         style="fill:none;stroke-width:2.5"
         id="rect1690"
         width="776.41748"
         height="202.16965"
         x="84.348228"
         y="316.84192" />
    </clipPath>
    <clipPath
       clipPathUnits="userSpaceOnUse"
       id="clipPath1692">
      <rect
         style="fill:none;stroke-width:2.5"
         id="rect1694"
         width="776.41748"
         height="202.16965"
         x="84.348228"
         y="316.84192" />
    </clipPath>
    <clipPath
       clipPathUnits="userSpaceOnUse"
       id="clipPath1696">
      <rect
         style="fill:none;stroke-width:2.5"
         id="rect1698"
         width="776.41748"
         height="202.16965"
         x="84.348228"
         y="316.84192" />
    </clipPath>
    <clipPath
       clipPathUnits="userSpaceOnUse"
       id="clipPath1700">
      <rect
         style="fill:none;stroke-width:2.5"
         id="rect1702"
         width="776.41748"
         height="202.16965"
         x="84.348228"
         y="316.84192" />
    </clipPath>
    <clipPath
       clipPathUnits="userSpaceOnUse"
       id="clipPath1704">
      <rect
         style="fill:none;stroke-width:2.5"
         id="rect1706"
         width="776.41748"
         height="202.16965"
         x="84.348228"
         y="316.84192" />
    </clipPath>
    <clipPath
       clipPathUnits="userSpaceOnUse"
       id="clipPath1708">
      <rect
         style="fill:none;stroke-width:2.5"
         id="rect1710"
         width="776.41748"
         height="202.16965"
         x="84.348228"
         y="316.84192" />
    </clipPath>
    <clipPath
       clipPathUnits="userSpaceOnUse"
       id="clipPath1712">
      <rect
         style="fill:none;stroke-width:2.5"
         id="rect1714"
         width="776.41748"
         height="202.16965"
         x="84.348228"
         y="316.84192" />
    </clipPath>
    <clipPath
       clipPathUnits="userSpaceOnUse"
       id="clipPath1716">
      <rect
         style="fill:none;stroke-width:2.5"
         id="rect1718"
         width="776.41748"
         height="202.16965"
         x="84.348228"
         y="316.84192" />
    </clipPath>
    <clipPath
       clipPathUnits="userSpaceOnUse"
       id="clipPath1720">
      <rect
         style="fill:none;stroke-width:2.5"
         id="rect1722"
         width="776.41748"
         height="202.16965"
         x="84.348228"
         y="316.84192" />
    </clipPath>
    <clipPath
       clipPathUnits="userSpaceOnUse"
       id="clipPath1724">
      <rect
         style="fill:none;stroke-width:2.5"
         id="rect1726"
         width="776.41748"
         height="202.16965"
         x="84.348228"
         y="316.84192" />
    </clipPath>
    <clipPath
       clipPathUnits="userSpaceOnUse"
       id="clipPath1728">
      <rect
         style="fill:none;stroke-width:2.5"
         id="rect1730"
         width="776.41748"
         height="202.16965"
         x="84.348228"
         y="316.84192" />
    </clipPath>
    <clipPath
       clipPathUnits="userSpaceOnUse"
       id="clipPath1732">
      <rect
         style="fill:none;stroke-width:2.5"
         id="rect1734"
         width="776.41748"
         height="202.16965"
         x="84.348228"
         y="316.84192" />
    </clipPath>
    <clipPath
       clipPathUnits="userSpaceOnUse"
       id="clipPath1736">
      <rect
         style="fill:none;stroke-width:2.5"
         id="rect1738"
         width="776.41748"
         height="202.16965"
         x="84.348228"
         y="316.84192" />
    </clipPath>
    <clipPath
       clipPathUnits="userSpaceOnUse"
       id="clipPath1740">
      <rect
         style="fill:none;stroke-width:2.5"
         id="rect1742"
         width="776.41748"
         height="202.16965"
         x="84.348228"
         y="316.84192" />
    </clipPath>
    <clipPath
       clipPathUnits="userSpaceOnUse"
       id="clipPath1744">
      <rect
         style="fill:none;stroke-width:2.5"
         id="rect1746"
         width="776.41748"
         height="202.16965"
         x="84.348228"
         y="316.84192" />
    </clipPath>
    <clipPath
       clipPathUnits="userSpaceOnUse"
       id="clipPath1748">
      <rect
         style="fill:none;stroke-width:2.5"
         id="rect1750"
         width="776.41748"
         height="202.16965"
         x="84.348228"
         y="316.84192" />
    </clipPath>
    <clipPath
       clipPathUnits="userSpaceOnUse"
       id="clipPath1752">
      <rect
         style="fill:none;stroke-width:2.5"
         id="rect1754"
         width="776.41748"
         height="202.16965"
         x="84.348228"
         y="316.84192" />
    </clipPath>
    <clipPath
       clipPathUnits="userSpaceOnUse"
       id="clipPath1756">
      <rect
         style="fill:none;stroke-width:2.5"
         id="rect1758"
         width="776.41748"
         height="202.16965"
         x="84.348228"
         y="316.84192" />
    </clipPath>
    <clipPath
       clipPathUnits="userSpaceOnUse"
       id="clipPath1760">
      <rect
         style="fill:none;stroke-width:2.5"
         id="rect1762"
         width="776.41748"
         height="202.16965"
         x="84.348228"
         y="316.84192" />
    </clipPath>
    <clipPath
       clipPathUnits="userSpaceOnUse"
       id="clipPath1764">
      <rect
         style="fill:none;stroke-width:2.5"
         id="rect1766"
         width="776.41748"
         height="202.16965"
         x="84.348228"
         y="316.84192" />
    </clipPath>
    <clipPath
       clipPathUnits="userSpaceOnUse"
       id="clipPath1768">
      <rect
         style="fill:none;stroke-width:2.5"
         id="rect1770"
         width="776.41748"
         height="202.16965"
         x="84.348228"
         y="316.84192" />
    </clipPath>
    <clipPath
       clipPathUnits="userSpaceOnUse"
       id="clipPath1772">
      <rect
         style="fill:none;stroke-width:2.5"
         id="rect1774"
         width="776.41748"
         height="202.16965"
         x="84.348228"
         y="316.84192" />
    </clipPath>
    <clipPath
       clipPathUnits="userSpaceOnUse"
       id="clipPath1776">
      <rect
         style="fill:none;stroke-width:2.5"
         id="rect1778"
         width="776.41748"
         height="202.16965"
         x="84.348228"
         y="316.84192" />
    </clipPath>
    <clipPath
       clipPathUnits="userSpaceOnUse"
       id="clipPath1780">
      <rect
         style="fill:none;stroke-width:2.5"
         id="rect1782"
         width="776.41748"
         height="202.16965"
         x="84.348228"
         y="316.84192" />
    </clipPath>
    <clipPath
       clipPathUnits="userSpaceOnUse"
       id="clipPath1784">
      <rect
         style="fill:none;stroke-width:2.5"
         id="rect1786"
         width="776.41748"
         height="202.16965"
         x="84.348228"
         y="316.84192" />
    </clipPath>
    <clipPath
       clipPathUnits="userSpaceOnUse"
       id="clipPath1788">
      <rect
         style="fill:none;stroke-width:2.5"
         id="rect1790"
         width="776.41748"
         height="202.16965"
         x="84.348228"
         y="316.84192" />
    </clipPath>
  </defs>
  <path
     fill="none"
     stroke="#000000"
     paint-order="fill stroke markers"
     d="M 134.90524,417.92674 H 247.45581"
     stroke-opacity="0.8"
     stroke-linecap="round"
     stroke-linejoin="round"
     stroke-miterlimit="10"
     stroke-width="2.5"
     id="path125"
     clip-path="url(#clipPath1788)"
     transform="matrix(0.78254621,0,0,0.78254621,-101.65685,-269.47734)" />
  <path
     fill="none"
     stroke="#000000"
     paint-order="fill stroke markers"
     d="M 247.45581,417.92674 H 360.00639"
     stroke-opacity="0.8"
     stroke-linecap="round"
     stroke-linejoin="round"
     stroke-miterlimit="10"
     stroke-width="2.5"
     id="path127"
     clip-path="url(#clipPath1784)"
     transform="matrix(0.78254621,0,0,0.78254621,-101.65685,-269.47734)" />
  <path
     fill="none"
     stroke="#000000"
     paint-order="fill stroke markers"
     d="M 360.00639,417.92674 H 472.55697"
     stroke-opacity="0.8"
     stroke-linecap="round"
     stroke-linejoin="round"
     stroke-miterlimit="10"
     stroke-width="2.5"
     id="path129"
     clip-path="url(#clipPath1780)"
     transform="matrix(0.78254621,0,0,0.78254621,-101.65685,-269.47734)" />
  <path
     fill="none"
     stroke="#000000"
     paint-order="fill stroke markers"
     d="M 472.55697,417.92674 H 585.10754"
     stroke-opacity="0.8"
     stroke-linecap="round"
     stroke-linejoin="round"
     stroke-miterlimit="10"
     stroke-width="2.5"
     id="path131"
     clip-path="url(#clipPath1776)"
     transform="matrix(0.78254621,0,0,0.78254621,-101.65685,-269.47734)" />
  <path
     fill="none"
     stroke="#000000"
     paint-order="fill stroke markers"
     d="M 585.10754,417.92674 H 697.65812"
     stroke-opacity="0.8"
     stroke-linecap="round"
     stroke-linejoin="round"
     stroke-miterlimit="10"
     stroke-width="2.5"
     id="path133"
     clip-path="url(#clipPath1772)"
     transform="matrix(0.78254621,0,0,0.78254621,-101.65685,-269.47734)" />
  <path
     fill="none"
     stroke="#000000"
     paint-order="fill stroke markers"
     d="M 697.65812,417.92674 H 810.2087"
     stroke-opacity="0.8"
     stroke-linecap="round"
     stroke-linejoin="round"
     stroke-miterlimit="10"
     stroke-width="2.5"
     id="path135"
     clip-path="url(#clipPath1768)"
     transform="matrix(0.78254621,0,0,0.78254621,-101.65685,-269.47734)" />
  <path
     fill="#000000"
     stroke="none"
     paint-order="stroke fill markers"
     d="m 139.90524,417.92674 c 0,2.76142 -2.23858,5 -5,5 -2.76143,0 -5,-2.23858 -5,-5 0,-2.76142 2.23857,-5 5,-5 2.76142,0 5,2.23858 5,5 z"
     fill-opacity="1"
     id="path139"
     clip-path="url(#clipPath1764)"
     transform="matrix(0.78254621,0,0,0.78254621,-101.65685,-269.47734)" />
  <path
     fill="none"
     stroke="#000000"
     paint-order="fill stroke markers"
     d="m 252.45581,417.92674 c 0,2.76142 -2.23857,5 -5,5 -2.76142,0 -5,-2.23858 -5,-5 0,-2.76142 2.23858,-5 5,-5 2.76143,0 5,2.23858 5,5 z"
     stroke-opacity="1"
     stroke-linecap="round"
     stroke-linejoin="round"
     stroke-miterlimit="10"
     id="path151"
     clip-path="url(#clipPath1760)"
     transform="matrix(0.78254621,0,0,0.78254621,-101.65685,-269.47734)" />
  <path
     fill="none"
     stroke="#000000"
     paint-order="fill stroke markers"
     d="m 365.00639,417.92674 c 0,2.76142 -2.23858,5 -5,5 -2.76142,0 -5,-2.23858 -5,-5 0,-2.76142 2.23858,-5 5,-5 2.76142,0 5,2.23858 5,5 z"
     stroke-opacity="1"
     stroke-linecap="round"
     stroke-linejoin="round"
     stroke-miterlimit="10"
     id="path161"
     clip-path="url(#clipPath1756)"
     transform="matrix(0.78254621,0,0,0.78254621,-101.65685,-269.47734)" />
  <path
     fill="none"
     stroke="#000000"
     paint-order="fill stroke markers"
     d="m 477.55697,417.92674 c 0,2.76142 -2.23858,5 -5,5 -2.76143,0 -5,-2.23858 -5,-5 0,-2.76142 2.23857,-5 5,-5 2.76142,0 5,2.23858 5,5 z"
     stroke-opacity="1"
     stroke-linecap="round"
     stroke-linejoin="round"
     stroke-miterlimit="10"
     id="path171"
     clip-path="url(#clipPath1752)"
     transform="matrix(0.78254621,0,0,0.78254621,-101.65685,-269.47734)" />
  <path
     fill="none"
     stroke="#000000"
     paint-order="fill stroke markers"
     d="m 590.10754,417.92674 c 0,2.76142 -2.23857,5 -5,5 -2.76142,0 -5,-2.23858 -5,-5 0,-2.76142 2.23858,-5 5,-5 2.76143,0 5,2.23858 5,5 z"
     stroke-opacity="1"
     stroke-linecap="round"
     stroke-linejoin="round"
     stroke-miterlimit="10"
     id="path181"
     clip-path="url(#clipPath1748)"
     transform="matrix(0.78254621,0,0,0.78254621,-101.65685,-269.47734)" />
  <path
     fill="none"
     stroke="#000000"
     paint-order="fill stroke markers"
     d="m 702.65812,417.92674 c 0,2.76142 -2.23858,5 -5,5 -2.76142,0 -5,-2.23858 -5,-5 0,-2.76142 2.23858,-5 5,-5 2.76142,0 5,2.23858 5,5 z"
     stroke-opacity="1"
     stroke-linecap="round"
     stroke-linejoin="round"
     stroke-miterlimit="10"
     id="path191"
     clip-path="url(#clipPath1744)"
     transform="matrix(0.78254621,0,0,0.78254621,-101.65685,-269.47734)" />
  <path
     fill="none"
     stroke="#000000"
     paint-order="fill stroke markers"
     d="m 815.2087,417.92674 c 0,2.76142 -2.23858,5 -5,5 -2.76143,0 -5,-2.23858 -5,-5 0,-2.76142 2.23857,-5 5,-5 2.76142,0 5,2.23858 5,5 z"
     stroke-opacity="1"
     stroke-linecap="round"
     stroke-linejoin="round"
     stroke-miterlimit="10"
     id="path201"
     clip-path="url(#clipPath1740)"
     transform="matrix(0.78254621,0,0,0.78254621,-101.65685,-269.47734)" />
  <path
     fill="#000000"
     stroke="none"
     paint-order="stroke fill markers"
     d="m 157.3744,390.36281 v 0 q 0,2.945 -2.09,5.453 -1.881,2.28 -4.408,3.002 -0.893,0.247 -1.767,0.247 -2.375,0 -3.743,-1.672 -1.121,-1.368 -1.121,-3.401 0,-2.85 2.033,-5.396 1.881,-2.299 4.408,-3.059 0.931,-0.285 1.843,-0.285 2.413,0 3.781,1.748 1.064,1.368 1.064,3.363 m -8.151,8.208 v 0 q 1.786,0 3.439,-1.596 0.342,-0.323 0.627,-0.684 1.862,-2.318 2.299,-5.529 0.095,-0.627 0.095,-1.14 0,-2.603 -1.748,-3.534 -0.019,0 -0.038,-0.019 -0.684,-0.342 -1.482,-0.342 -1.786,0 -3.458,1.539 -0.684,0.608 -1.216,1.425 -1.444,2.185 -1.691,5.225 -0.038,0.342 -0.038,0.608 0,2.432 1.463,3.496 0.76,0.551 1.748,0.551 z"
     id="path143"
     style="stroke-width:19"
     clip-path="url(#clipPath1736)"
     transform="matrix(0.78254621,0,0,0.78254621,-101.65685,-269.47734)" />
  <path
     fill="#000000"
     stroke="none"
     paint-order="stroke fill markers"
     d="m 269.7544,385.44181 -1.197,4.845 q -0.095,0.342 -0.19,0.361 l -0.019,0.019 h -0.133 q -0.285,0 -0.285,-0.19 l 0.057,-0.931 v -0.038 q 0,-2.356 -1.482,-3.249 l -0.019,-0.019 q -0.665,-0.399 -1.558,-0.399 -2.014,0 -3.819,1.501 -0.456,0.361 -0.817,0.798 -1.805,2.109 -2.223,5.358 -0.076,0.589 -0.076,1.026 0,2.66 2.014,3.591 0.779,0.361 1.71,0.361 1.786,0 3.496,-1.387 1.33,-1.121 1.919,-3.002 0.038,-0.19 0.247,-0.19 0.228,0 0.228,0.19 0,0.342 -0.437,1.216 -0.589,1.197 -1.653,2.128 -1.881,1.634 -4.104,1.634 -2.432,0 -3.895,-1.672 -1.254,-1.425 -1.254,-3.534 0,-2.831 2.071,-5.301 1.919,-2.299 4.541,-3.04 0.969,-0.266 1.9,-0.266 2.071,0 3.154,1.691 l 1.33,-1.463 q 0.228,-0.228 0.285,-0.228 0.209,0 0.209,0.19 z"
     id="path153"
     style="stroke-width:19"
     clip-path="url(#clipPath1732)"
     transform="matrix(0.78254621,0,0,0.78254621,-101.65685,-269.47734)" />
  <path
     fill="#000000"
     stroke="none"
     paint-order="stroke fill markers"
     d="m 371.33538,397.16481 v 0 l 2.546,-10.203 q 0.076,-0.304 0.076,-0.361 0,-0.228 -0.304,-0.285 h -0.019 v 0 q -0.038,-0.019 -0.095,-0.019 -0.456,-0.038 -0.817,-0.038 -0.494,0 -0.532,-0.152 -0.019,-0.038 -0.019,-0.076 0,-0.323 0.323,-0.361 v 0 h 0.247 6.384 q 2.47,0 3.686,1.919 0.779,1.216 0.779,2.888 0,2.755 -1.919,5.149 -1.824,2.223 -4.294,2.831 -0.741,0.19 -1.482,0.19 h -6.289 q -0.475,0 -0.513,-0.152 -0.019,-0.019 -0.019,-0.076 0,-0.323 0.304,-0.361 h 0.228 q 1.235,0 1.482,-0.266 0.114,-0.133 0.228,-0.532 0,-0.019 0.019,-0.095 m 4.104,-10.184 -2.603,10.431 q -0.095,0.342 -0.095,0.437 0,0.152 0.171,0.19 v 0 0 h 0.076 q 0.114,0.019 0.418,0.019 h 2.147 q 2.356,0 4.066,-1.767 0.171,-0.19 0.323,-0.38 1.52,-1.976 1.919,-5.168 0.076,-0.589 0.076,-0.969 0,-2.546 -1.995,-3.268 -0.646,-0.247 -1.444,-0.247 h -2.033 q -0.684,0 -0.836,0.19 v 0 0.019 h -0.019 v 0.019 q -0.076,0.114 -0.171,0.494 z"
     id="path163"
     style="stroke-width:19"
     clip-path="url(#clipPath1728)"
     transform="matrix(0.78254621,0,0,0.78254621,-101.65685,-269.47734)" />
  <path
     fill="#000000"
     stroke="none"
     paint-order="stroke fill markers"
     d="m 493.76639,394.21981 v 0 l -1.748,4.104 q -0.114,0.266 -0.266,0.304 v 0 h -0.019 q -0.076,0.019 -0.304,0.019 h -9.861 q -0.475,0 -0.513,-0.152 -0.019,-0.019 -0.019,-0.076 0,-0.323 0.304,-0.361 h 0.228 q 1.235,0 1.482,-0.266 0.114,-0.133 0.228,-0.532 0,-0.019 0.019,-0.095 l 2.508,-10.051 q 0.095,-0.342 0.095,-0.456 0,-0.323 -0.874,-0.342 h -0.019 -0.342 q -0.494,0 -0.532,-0.209 0,-0.342 0.304,-0.38 h 0.266 9.595 q 0.456,0 0.494,0.133 h 0.019 q 0.038,0.114 0,0.38 l -0.38,3.287 q -0.133,0.437 -0.266,0.475 -0.228,0 -0.228,-0.228 l 0.019,-0.323 v -0.019 q 0.076,-0.513 0.076,-1.007 0,-1.33 -0.741,-1.748 -0.627,-0.361 -2.147,-0.361 h -2.679 q -0.703,0 -0.836,0.209 h -0.019 v 0.019 q -0.057,0.076 -0.095,0.228 v 0.019 l -0.019,0.019 q -0.019,0.076 -0.057,0.247 l -1.14,4.579 h 1.786 q 1.444,0 1.919,-0.57 0.304,-0.361 0.57,-1.311 0.076,-0.323 0.266,-0.342 0.228,0 0.228,0.209 l -1.083,4.446 q -0.095,0.361 -0.285,0.38 -0.247,0 -0.247,-0.209 0,-0.076 0.057,-0.209 0.133,-0.57 0.133,-0.931 0,-0.513 -0.285,-0.665 -0.361,-0.209 -1.33,-0.209 h -1.881 l -1.292,5.187 q -0.095,0.342 -0.095,0.437 0,0.152 0.171,0.19 v 0 0 h 0.076 q 0.114,0.019 0.418,0.019 h 2.774 q 2.318,0 3.42,-1.064 0.722,-0.684 1.577,-2.565 0.076,-0.209 0.19,-0.456 0.076,-0.228 0.247,-0.228 0.228,0 0.228,0.209 0,0.019 -0.095,0.266 z"
     id="path173"
     style="stroke-width:19"
     clip-path="url(#clipPath1724)"
     transform="matrix(0.78254621,0,0,0.78254621,-101.65685,-269.47734)" />
  <path
     fill="#000000"
     stroke="none"
     paint-order="stroke fill markers"
     d="m 599.07141,392.47181 -1.178,4.731 q -0.076,0.285 -0.076,0.437 0,0.266 0.247,0.323 0.133,0.038 0.361,0.057 0.475,0.038 0.988,0.038 0.475,0 0.532,0.019 l 0.095,0.133 q 0.019,0.038 0.019,0.076 0,0.361 -0.399,0.361 l -2.812,-0.057 h -0.019 l -2.489,0.057 h -0.019 q -0.285,0 -0.285,-0.228 0,-0.323 0.304,-0.361 h 0.228 q 1.235,0 1.482,-0.266 0.114,-0.133 0.228,-0.532 0,-0.019 0.019,-0.095 l 2.508,-10.051 q 0.095,-0.342 0.095,-0.456 0,-0.323 -0.874,-0.342 h -0.019 -0.342 q -0.494,0 -0.532,-0.209 0,-0.342 0.304,-0.38 h 0.266 9.31 q 0.456,0 0.494,0.133 h 0.019 q 0.038,0.114 0,0.38 l -0.38,3.287 q -0.133,0.437 -0.266,0.475 -0.228,0 -0.228,-0.228 0,-0.095 0.038,-0.342 0.057,-0.513 0.057,-1.026 0,-1.273 -0.646,-1.691 l -0.019,-0.019 q -0.608,-0.38 -2.109,-0.38 h -2.508 q -0.703,0 -0.836,0.209 h -0.019 v 0.019 q -0.057,0.076 -0.095,0.228 v 0.019 l -0.019,0.019 q -0.019,0.076 -0.057,0.247 l -1.216,4.826 h 1.729 q 1.387,0 1.862,-0.513 l 0.019,-0.019 q 0.323,-0.361 0.57,-1.292 0.095,-0.361 0.285,-0.399 0.209,0 0.228,0.209 0,0.095 -0.057,0.304 l -1.045,4.123 q -0.19,0.38 -0.285,0.399 -0.228,0 -0.228,-0.228 0,-0.076 0.057,-0.209 0.133,-0.57 0.133,-0.931 0,-0.551 -0.418,-0.722 v 0 q -0.361,-0.133 -1.159,-0.133 z"
     id="path183"
     style="stroke-width:19"
     clip-path="url(#clipPath1720)"
     transform="matrix(0.78254621,0,0,0.78254621,-101.65685,-269.47734)" />
  <path
     fill="#000000"
     stroke="none"
     paint-order="stroke fill markers"
     d="m 719.75441,385.44181 -1.197,4.845 q -0.095,0.342 -0.19,0.361 l -0.019,0.019 h -0.133 q -0.285,0 -0.285,-0.19 l 0.057,-0.931 v -0.038 q 0,-2.356 -1.482,-3.249 l -0.019,-0.019 q -0.665,-0.399 -1.558,-0.399 -2.033,0 -3.857,1.539 -0.513,0.418 -0.893,0.912 -1.824,2.242 -2.147,5.51 -0.038,0.399 -0.038,0.684 0,2.603 1.976,3.572 0.836,0.418 1.843,0.418 1.615,0 2.679,-0.817 0.76,-0.57 0.988,-1.482 0.399,-1.482 0.399,-1.729 0,-0.247 -0.285,-0.323 -0.095,-0.019 -0.304,-0.038 -0.437,-0.038 -1.007,-0.038 -0.513,0 -0.551,-0.114 -0.019,-0.019 -0.019,-0.095 0,-0.38 0.399,-0.38 l 2.641,0.057 h 0.019 l 1.976,-0.057 h 0.019 q 0.247,0 0.247,0.209 0,0.38 -0.304,0.38 -0.874,0.019 -1.045,0.19 -0.114,0.133 -0.266,0.722 0,-0.038 -0.19,0.741 -0.038,0.133 -0.057,0.228 l -0.361,1.463 q -0.266,1.102 -0.323,1.159 0,0.076 -0.133,0.076 -0.209,0 -0.646,-0.722 -0.133,-0.247 -0.209,-0.456 -0.646,0.722 -1.463,1.083 l -0.19,0.076 q -1.102,0.456 -2.375,0.456 -2.565,0 -4.028,-1.786 -1.159,-1.406 -1.159,-3.42 0,-2.831 2.071,-5.301 1.919,-2.299 4.541,-3.04 0.969,-0.266 1.9,-0.266 2.071,0 3.154,1.691 l 1.33,-1.463 q 0.228,-0.228 0.285,-0.228 0.209,0 0.209,0.19 z"
     id="path193"
     style="stroke-width:19"
     clip-path="url(#clipPath1716)"
     transform="matrix(0.78254621,0,0,0.78254621,-101.65685,-269.47734)" />
  <path
     fill="#000000"
     stroke="none"
     paint-order="stroke fill markers"
     d="m 832.8114,387.13281 -2.565,10.26 -0.057,0.323 q 0,0.323 0.893,0.342 h 0.019 0.323 q 0.494,0 0.532,0.209 0,0.38 -0.38,0.38 l -1.216,-0.038 h -0.019 l -1.178,-0.019 h -0.038 l -2.394,0.057 h -0.019 q -0.266,0 -0.266,-0.209 0,-0.342 0.266,-0.38 v 0 0 h 0.19 q 1.197,0 1.463,-0.19 l 0.019,-0.019 q 0.152,-0.133 0.247,-0.418 l 1.311,-5.244 h -5.795 l -1.292,5.206 -0.057,0.323 q 0,0.323 0.874,0.342 v 0 0 h 0.361 q 0.494,0 0.532,0.209 0,0.38 -0.38,0.38 l -1.216,-0.038 h -0.019 l -1.178,-0.019 h -0.038 l -2.394,0.057 h -0.019 q -0.266,0 -0.266,-0.209 0,-0.342 0.285,-0.38 h 0.228 q 1.235,0 1.482,-0.266 0.114,-0.133 0.228,-0.532 0,-0.019 0.019,-0.095 l 2.546,-10.203 q 0.076,-0.304 0.076,-0.361 0,-0.228 -0.304,-0.285 h -0.019 -0.019 q -0.057,0 -0.171,-0.019 -0.323,-0.038 -0.722,-0.038 -0.494,0 -0.532,-0.209 0,-0.38 0.361,-0.38 l 2.432,0.057 h 0.019 l 2.413,-0.057 h 0.019 q 0.266,0 0.266,0.209 0,0.323 -0.266,0.361 h -0.019 v 0 0 l -0.019,0.019 h -0.342 q -1.159,0 -1.387,0.323 h -0.019 v 0.019 q -0.095,0.133 -0.19,0.532 l -1.121,4.465 h 5.795 l 1.14,-4.636 q 0.076,-0.323 0.076,-0.361 0,-0.228 -0.304,-0.285 -0.057,0 -0.209,-0.019 -0.323,-0.038 -0.722,-0.038 -0.494,0 -0.532,-0.209 0,-0.38 0.361,-0.38 l 2.432,0.057 h 0.019 l 2.413,-0.057 h 0.019 q 0.266,0 0.266,0.209 0,0.323 -0.266,0.361 h -0.019 q -0.095,0.019 -0.361,0.019 -1.159,0 -1.387,0.304 -0.095,0.133 -0.209,0.57 z"
     id="path203"
     style="stroke-width:19"
     clip-path="url(#clipPath1712)"
     transform="matrix(0.78254621,0,0,0.78254621,-101.65685,-269.47734)" />
  <path
     fill="#000000"
     stroke="none"
     paint-order="stroke fill markers"
     d="m 252.45581,417.92674 c 0,2.76142 -2.23857,5 -5,5 -2.76142,0 -5,-2.23858 -5,-5 0,-2.76142 2.23858,-5 5,-5 2.76143,0 5,2.23858 5,5 z"
     fill-opacity="1"
     id="path149"
     clip-path="url(#clipPath1708)"
     transform="matrix(0.78254621,0,0,0.78254621,-101.65685,-269.47734)" />
  <path
     fill="#000000"
     stroke="none"
     paint-order="stroke fill markers"
     d="m 365.00639,417.92674 c 0,2.76142 -2.23858,5 -5,5 -2.76142,0 -5,-2.23858 -5,-5 0,-2.76142 2.23858,-5 5,-5 2.76142,0 5,2.23858 5,5 z"
     fill-opacity="1"
     id="path159"
     clip-path="url(#clipPath1704)"
     transform="matrix(0.78254621,0,0,0.78254621,-101.65685,-269.47734)" />
  <path
     fill="#000000"
     stroke="none"
     paint-order="stroke fill markers"
     d="m 477.55697,417.92674 c 0,2.76142 -2.23858,5 -5,5 -2.76143,0 -5,-2.23858 -5,-5 0,-2.76142 2.23857,-5 5,-5 2.76142,0 5,2.23858 5,5 z"
     fill-opacity="1"
     id="path169"
     clip-path="url(#clipPath1700)"
     transform="matrix(0.78254621,0,0,0.78254621,-101.65685,-269.47734)" />
  <path
     fill="#000000"
     stroke="none"
     paint-order="stroke fill markers"
     d="m 590.10754,417.92674 c 0,2.76142 -2.23857,5 -5,5 -2.76142,0 -5,-2.23858 -5,-5 0,-2.76142 2.23858,-5 5,-5 2.76143,0 5,2.23858 5,5 z"
     fill-opacity="1"
     id="path179"
     clip-path="url(#clipPath1696)"
     transform="matrix(0.78254621,0,0,0.78254621,-101.65685,-269.47734)" />
  <path
     fill="#000000"
     stroke="none"
     paint-order="stroke fill markers"
     d="m 702.65812,417.92674 c 0,2.76142 -2.23858,5 -5,5 -2.76142,0 -5,-2.23858 -5,-5 0,-2.76142 2.23858,-5 5,-5 2.76142,0 5,2.23858 5,5 z"
     fill-opacity="1"
     id="path189"
     clip-path="url(#clipPath1692)"
     transform="matrix(0.78254621,0,0,0.78254621,-101.65685,-269.47734)" />
  <path
     fill="#000000"
     stroke="none"
     paint-order="stroke fill markers"
     d="m 815.2087,417.92674 c 0,2.76142 -2.23858,5 -5,5 -2.76143,0 -5,-2.23858 -5,-5 0,-2.76142 2.23857,-5 5,-5 2.76142,0 5,2.23858 5,5 z"
     fill-opacity="1"
     id="path199"
     clip-path="url(#clipPath1688)"
     transform="matrix(0.78254621,0,0,0.78254621,-101.65685,-269.47734)" />
</svg>
