<?xml version="1.0" encoding="UTF-8" standalone="no"?>
<svg
   version="1.1"
   width="875.49762"
   height="457.46069"
   id="svg43"
   sodipodi:docname="kinematics1.1.svg"
   inkscape:version="1.1 (c68e22c387, 2021-05-23)"
   xmlns:inkscape="http://www.inkscape.org/namespaces/inkscape"
   xmlns:sodipodi="http://sodipodi.sourceforge.net/DTD/sodipodi-0.dtd"
   xmlns="http://www.w3.org/2000/svg"
   xmlns:svg="http://www.w3.org/2000/svg">
  <sodipodi:namedview
     id="namedview45"
     pagecolor="#ffffff"
     bordercolor="#666666"
     borderopacity="1.0"
     inkscape:pageshadow="2"
     inkscape:pageopacity="0.0"
     inkscape:pagecheckerboard="0"
     showgrid="false"
     fit-margin-top="0"
     fit-margin-left="0"
     fit-margin-right="0"
     fit-margin-bottom="0"
     inkscape:zoom="0.76527778"
     inkscape:cx="745.48094"
     inkscape:cy="253.50272"
     inkscape:window-width="1440"
     inkscape:window-height="898"
     inkscape:window-x="-6"
     inkscape:window-y="-6"
     inkscape:window-maximized="1"
     inkscape:current-layer="svg43" />
  <defs
     id="defs5">
    <clipPath
       id="cJwQEBSGaBmv">
      <path
         fill="none"
         stroke="none"
         d="M 0,0 H 1440 V 785 H 0 Z"
         id="path2" />
    </clipPath>
    <clipPath
       clipPathUnits="userSpaceOnUse"
       id="clipPath170">
      <rect
         style="fill:#000000;fill-opacity:0.164659;stroke:#440423;stroke-width:0.818542"
         id="rect172"
         width="891.29016"
         height="457.46069"
         x="-17.042524"
         y="138.45657" />
    </clipPath>
  </defs>
  <g
     clip-path="url(#clipPath170)"
     id="g41"
     transform="translate(1.25,-138.45657)">
    <g
       id="g39">
      <rect
         fill="#ffffff"
         stroke="none"
         x="0"
         y="0"
         width="1440"
         height="785"
         fill-opacity="1"
         id="rect7" />
      <path
         fill="none"
         stroke="#2e7d32"
         paint-order="fill stroke markers"
         d="M 0,415.87701 2.3600597,417.03125 4.5,418.07969 7.3777033,419.48437 9,420.27773 l 4.5,2.19316 3.949127,1.91973 0.550873,0.26833 4.5,2.1827 4.5,2.17638 4.5,2.17048 4.5,2.16432 4.5,2.15791 4.5,2.15124 4.5,2.1443 4.5,2.13711 4.5,2.12962 5.086999,2.39574 3.913001,1.83773 1.319034,0.61539 3.180966,1.48875 4.5,2.09542 2.854937,1.32208 1.645063,0.76432 3.661134,1.68881 0.838866,0.38826 4.494468,2.06486 4.505532,2.05829 4.5,2.04529 1.77945,0.80267 2.72055,1.23186 2.72024,1.22127 1.77976,0.80214 3.69529,1.65098 0.80471,0.36096 4.5,1.99964 4.5,1.98553 1.28164,0.56012 3.21836,1.41265 2.39425,1.04048 2.10575,0.91914 3.55048,1.53398 0.94952,0.41209 4.5,1.93148 4.5,1.91463 1.54011,0.64805 2.95989,1.25154 4.5,1.8841 4.26619,1.77061 4.73381,1.94608 4.5,1.83077 2.80882,1.1294 1.69118,0.68369 4.43658,1.76944 4.56342,1.79709 4.5,1.75189 4.5,1.7317 4.5,1.70822 0.99489,0.37047 3.50511,1.31331 4.5,1.66139 4.5,1.63605 4.5,1.60792 4.5,1.58305 5.8569,2.01078 3.1431,1.06619 4.17509,1.38694 4.82491,1.56816 2.79527,0.88496 1.70473,0.54372 4.5,1.39322 1.72119,0.51619 2.77881,0.83984 4.5,1.31998 1.03994,0.2933 3.46006,0.98381 4.5,1.2388 0.87675,0.23052 3.62325,0.96072 4.5,1.14863 1.41788,0.34377 3.08212,0.75389 4.5,1.04825 4.5,0.99551 4.5,0.93628 6.12265,1.17232 2.87735,0.52263 4.5,0.74731 8.26298,1.18319 0.73702,0.0998 4.5,0.51944 4.5,0.43499 4.5,0.34398 4.5,0.24572 4.5,0.13953 4.5,0.0245 4.5,-0.1001 4.5,-0.23545 4.5,-0.38261 4.5,-0.54286 3.45498,-0.54699 1.04502,-0.17356 4.5,-0.92469 4.5,-1.13819 0.73103,-0.21669 3.76897,-1.17772 3.48088,-1.2754 1.01912,-0.39456 4.5,-1.99325 4.5,-2.37169 4.1792,-2.59988 3.39959,-2.45312 1.42121,-1.10457 1.59669,-1.34856 2.71605,-2.45312 2.40515,-2.45313 2.22371,-2.45312 1.98481,-2.45313 1.84685,-2.45312 0.72674,-1.02341 0.95929,-1.42972 1.55069,-2.45312 1.44941,-2.45313 0.54061,-0.96831 0.78932,-1.48481 1.22971,-2.45313 1.15186,-2.45312 1.07888,-2.45313 0.25023,-0.60071 0.74044,-1.85241 0.9228,-2.45313 0.86518,-2.45312 0.81091,-2.45313 0.75974,-2.45312 0.40093,-1.37504 0.30393,-1.07809 0.65237,-2.45312 0.61103,-2.45313 0.57193,-2.45312 0.53492,-2.45313 0.4999,-2.45312 0.46675,-2.45313 0.43536,-2.45312 0.40562,-2.45313 0.37206,-2.45312 0.34589,-2.45313 0.32135,-2.45312 0.2981,-2.45313 0.27607,-2.45312 0.25519,-2.45313 0.23543,-2.45312 0.21672,-2.45313 0.19903,-2.45312 0.18231,-2.45313 0.16651,-2.45312 0.15162,-2.45313 0.13757,-2.45312 0.12436,-2.45313 0.11194,-2.45312 0.10029,-2.45313 0.0894,-2.45312 0.0792,-2.45313 0.0697,-2.45312 0.0609,-2.45313 0.0527,-2.45312 0.0452,-2.45313 0.0383,-2.45312 0.032,-2.45313 0.0263,-2.45312 0.0212,-2.45313 0.0166,-2.45312 0.0127,-2.45313 0.009,-2.45312 0.006,-2.45313 0.004,-2.45312 0.002,-2.45313 10e-4,-2.45312 3e-4,-2.45313 1.1e-4,-2.45312 4.4e-4,-2.45313 0.001,-2.45312 0.003,-2.45313 0.005,-2.45312 0.007,-2.45313 0.0101,-2.45312 0.0137,-2.45313 0.0178,-2.45312 0.0224,-2.45313 0.0277,-2.45312 0.0335,-2.45313 0.0399,-2.45312 0.0469,-2.45313 0.0546,-2.45312 0.0628,-2.45313 0.0717,-2.45312 0.0388,-1.17367 0.0428,-1.27946 0.0923,-2.45312 0.10346,-2.45313 0.11537,-2.45312 0.12804,-2.45313 0.14153,-2.45312 0.15585,-2.45313 0.17107,-2.45312 0.18717,-2.45313 0.20423,-2.45312 0.22229,-2.45313 0.24136,-2.45312 0.26153,-2.45313 0.28283,-2.45312 0.30532,-2.45313 0.32905,-2.45312 0.3541,-2.45313 0.38053,-2.45312 0.4084,-2.45313 0.37276,-2.09135 0.54347,-2.8149 0.51117,-2.45312 0.54699,-2.45313 0.58485,-2.45312 0.62487,-2.45313 0.66719,-2.45312 0.71197,-2.45313 0.30949,-1.00701 0.46046,-1.44611 0.82949,-2.45313 0.88519,-2.45312 0.94435,-2.45313 1.00719,-2.45312 0.37332,-0.86096 0.72093,-1.59217 1.17981,-2.45312 1.25998,-2.45313 1.33928,-2.44172 1.49327,-2.46453 1.59134,-2.45312 1.41539,-2.04464 2.19788,-2.86161 2.03893,-2.45313 2.27881,-2.45312 2.4703,-2.45313 2.80442,-2.45312 1.70966,-1.39626 1.40913,-1.05687 3.09087,-2.17192 4.5,-2.71889 4.5,-2.28847 4.5,-1.92326 1.92181,-0.70996 2.57819,-0.90186 4.5,-1.34111 0.83128,-0.21015 3.66872,-0.88148 4.5,-0.87955 4.5,-0.68924 4.5,-0.50693 4.5,-0.3502 4.5,-0.20621 4.5,-0.0737 4.5,0.0484 4.5,0.1611 4.5,0.26526 4.5,0.3617 2.94613,0.29774 1.55387,0.15534 4.5,0.54078 4.5,0.61852 4.5,0.69084 2.63316,0.44765 1.86684,0.31423 4.5,0.83041 4.5,0.88928 1.97508,0.4192 2.52492,0.53095 4.5,1.00644 3.89693,0.91574 0.60307,0.14046 4.5,1.11135 4.5,1.15377 4.5,1.20502 4.5,1.24282 4.5,1.28965 4.5,1.32406 7.64097,2.34537 1.35903,0.42037 4.5,1.43539 1.82264,0.59736 2.67736,0.87119 4.5,1.49781 4.5,1.53245 2.89351,1.0048 1.60649,0.5541 4.5,1.58705 0.86422,0.31198 3.63578,1.30402 3.14734,1.1491 1.35266,0.49072 4.5,1.66514 4.5,1.69093 2.77781,1.05946 1.72219,0.65293 4.5,1.73368 4.5,1.75821 4.5,1.77756 4.5,1.79636 4.5,1.81637 0.6768,0.27739 3.8232,1.55878 4.5,1.85312 3.59318,1.49435 0.90682,0.37524 4.5,1.88667 4.5,1.90421 4.5,1.91905 4.5,1.93346 4.5,1.94744 5.26408,2.29956 3.73592,1.63976 1.83551,0.81336 2.66449,1.1758 2.86777,1.27733 1.63223,0.72404 3.86272,1.72908 0.63728,0.28413 4.5,2.02535 4.5,2.03765 1.22513,0.55912 3.27487,1.48916 4.5,2.05858 2.95181,1.35851 1.54819,0.71005 4.5,2.07819 4.5,2.08764 4.5,2.09789 4.5,2.1065 1.55505,0.73223 2.94495,1.38258 4.5,2.12284 2.95583,1.40083 1.54417,0.72975 3.62529,1.72338 0.87471,0.41467 4.27542,2.03845 4.72458,2.25954 4.5,2.15966 4.5,2.16598 4.5,2.17205 4.5,2.17787 4.5,2.18344 3.28816,1.60021 1.21184,0.58856 4.5,2.19387 4.34644,2.12382 4.65356,2.2786 4.5,2.2082 0.85211,0.41945 3.64789,1.79287 1.33926,0.66026 3.16074,1.55594 1.81719,0.89718 2.68281,1.3227 4.5,2.22332 2.74777,1.36023 1.75223,0.86633 3.20158,1.5868 1.29842,0.64277 3.64851,1.81035 0.85149,0.42204 4.5,2.23498 4.5,2.23738 4.5,2.23975 4.5,2.24168 4.5,2.24341 4.5,2.24494 1.71149,0.85457 2.78851,1.39168 2.1249,1.06145 2.3751,1.18593 4.5,2.2483 4.5,2.24902 3.35278,1.67612 1.14722,0.57342 3.75959,1.87971 0.74041,0.37015 4.16599,2.08297 4.83401,2.4169 4.5,2.24957 4.5,2.24905 4.5,2.24834 1.29917,0.64864 3.20083,1.59879 4.5,2.2463 2.12771,1.06116 2.37229,1.18383 4.5,2.24347 2.96953,1.47895 1.53047,0.7628 4.50001,2.23982 3.8287,1.90363 0.6713,0.33405 4.5,2.23534 4.5,2.23265 4.5,2.22971 4.5,2.22669 4.5,2.22345 4.5,2.22002 4.5,2.21634 4.5,2.21246 4.5,2.20835 4.5,2.20402 4.5,2.19945 4.5974,2.24185 4.4026,2.14167 0.643,0.31145 3.857,1.87219 1.2022,0.58094 3.2978,1.59714 1.7757,0.85598 2.7243,1.31627 4.5,2.16619 2.9689,1.42379 1.5311,0.73608 3.5902,1.71705 0.9098,0.43623 4.2291,2.01689 4.7709,2.26827 4.5,2.13084 1.0773,0.50714 3.4227,1.61595 1.7844,0.83718 2.7156,1.27788 4.5,2.10675 4.5,2.09813 4.0434,1.87661 5.3084,2.45313 4.1482,1.90763 1.1954,0.54549 3.3046,1.51337 2.0684,0.93976 2.4316,1.1088 2.9723,1.34432 1.5277,0.69359 4.5,2.02693 4.5,2.01476 4.5,2.00167 4.5,1.98943 2.4772,1.08612 2.0228,0.89072 4.5,1.96383 4.5,1.94988 4.5,1.93375 4.5,1.91932 2.7343,1.155 1.7657,0.74946 4.0601,1.70367 4.9399,2.05644 4.5,1.85338 4.5,1.83641 3.9933,1.61314 0.5067,0.20578 4.5,1.79795 4.5,1.77778 2.8843,1.12474 1.6157,0.63367 4.5,1.73788 4.5,1.71257 4.5,1.6911 4.5,1.66895 4.5,1.64061 2.0336,0.72772 2.4664,0.88839 4.5,1.59155 4.5,1.5592 2.5538,0.86711 1.9462,0.66538 5.3784,1.78775 3.6216,1.18355 3.9734,1.26957 0.5266,0.16949 4.5,1.40073 2.9136,0.88291 1.5864,0.48443 4.5,1.32846 2.2434,0.64023 2.2566,0.64921 4.5,1.24842 2.0843,0.5555 2.4157,0.64921 4.5,1.15957 2.6161,0.64434 1.8839,0.46806 4.5,1.0607 4.5,1.01167 9,1.84611 2.817,0.51971 1.683,0.31354 9,1.46218 4.5,0.62541 4.5,0.54146 4.5,0.458 4.5,0.36879 4.5,0.27253 4.5,0.16851 4.5,0.0559 4.5,-0.066 4.5,-0.19845 4.5,-0.34236 4.5,-0.49901 4.5,-0.66976 4.5,-0.87062 4.5,-1.07963 1.8961,-0.54049 2.6039,-0.78216 4.5,-1.58979 4.5,-1.90954 1.2938,-0.62476 3.2062,-1.64191 1.4177,-0.81121 3.0823,-1.87544"
         stroke-opacity="0.8"
         stroke-linecap="round"
         stroke-linejoin="round"
         stroke-miterlimit="10"
         stroke-width="2.5"
         id="path9" />
      <path
         fill="none"
         stroke="#000000"
         paint-order="fill stroke markers"
         d="M 124.92341,474.39647 715.12207,267.25367"
         stroke-opacity="0.698039"
         stroke-linecap="round"
         stroke-linejoin="round"
         stroke-miterlimit="10"
         stroke-width="2.5"
         id="path11" />
      <path
         fill="#000000"
         stroke="none"
         paint-order="stroke fill markers"
         fill-rule="evenodd"
         d="m 731.16279,261.62383 -14.63327,9.64002 -2.81491,-8.02037 z"
         fill-opacity="0.698039"
         id="path13" />
      <path
         fill="#1565c0"
         stroke="none"
         paint-order="stroke fill markers"
         d="m 129.92341,474.39647 c 0,2.76143 -2.23857,5 -5,5 -2.76142,0 -5,-2.23857 -5,-5 0,-2.76142 2.23858,-5 5,-5 2.76143,0 5,2.23858 5,5 z"
         fill-opacity="1"
         id="path15" />
      <path
         fill="none"
         stroke="#000000"
         paint-order="fill stroke markers"
         d="m 129.92341,474.39647 c 0,2.76143 -2.23857,5 -5,5 -2.76142,0 -5,-2.23857 -5,-5 0,-2.76142 2.23858,-5 5,-5 2.76143,0 5,2.23858 5,5 z"
         stroke-opacity="1"
         stroke-linecap="round"
         stroke-linejoin="round"
         stroke-miterlimit="10"
         id="path17" />
      <g
         transform="scale(27)"
         id="g23">
        <g
           transform="translate(4.6666667,16.831148)"
           id="g21">
          <path
             fill="#1565c0"
             stroke="none"
             paint-order="stroke fill markers"
             d="m 0.179,-0.115 0.348,-0.584 q 0.01,-0.016 0.026,-0.017 0.015,0 0.017,0.01 0.001,0.003 0.002,0.014 l 0.061,0.625 q 0.003,0.025 0.012,0.03 h 0.001 v 0 0 0 0.001 q 0.012,0.005 0.052,0.005 0.022,0 0.023,0.011 Q 0.721,0 0.703,0 L 0.591,-0.003 H 0.59 L 0.466,0 H 0.465 q -0.014,0 -0.014,-0.011 0.008,-0.019 0.024,-0.02 0.072,0 0.072,-0.033 0,0.001 -0.016,-0.167 H 0.28 l -0.076,0.128 q -0.014,0.025 -0.014,0.037 0,0.031 0.047,0.035 0.016,0 0.016,0.012 Q 0.253,0 0.234,0 L 0.138,-0.003 H 0.134 L 0.05,0 H 0.048 q -0.013,0 -0.013,-0.011 0,-0.018 0.015,-0.019 v -0.001 h 0.006 q 0.063,-0.004 0.103,-0.054 0.01,-0.013 0.02,-0.03 m 0.12,-0.147 h 0.229 l -0.032,-0.33 z"
             id="path19" />
        </g>
      </g>
      <path
         fill="#1565c0"
         stroke="none"
         paint-order="stroke fill markers"
         d="m 742.16279,261.62383 c 0,6.07513 -4.92486,11 -11,11 -6.07513,0 -11,-4.92487 -11,-11 0,-6.07513 4.92487,-11 11,-11 6.07514,0 11,4.92487 11,11 z"
         fill-opacity="0.2"
         id="path25" />
      <path
         fill="none"
         stroke="#1565c0"
         paint-order="fill stroke markers"
         d="m 742.16279,261.62383 c 0,6.07513 -4.92486,11 -11,11 -6.07513,0 -11,-4.92487 -11,-11 0,-6.07513 4.92487,-11 11,-11 6.07514,0 11,4.92487 11,11 z"
         stroke-opacity="0.2"
         stroke-linecap="round"
         stroke-linejoin="round"
         stroke-miterlimit="10"
         id="path27" />
      <path
         fill="#1565c0"
         stroke="none"
         paint-order="stroke fill markers"
         d="m 736.16279,261.62383 c 0,2.76142 -2.23857,5 -5,5 -2.76142,0 -5,-2.23858 -5,-5 0,-2.76142 2.23858,-5 5,-5 2.76143,0 5,2.23858 5,5 z"
         fill-opacity="1"
         id="path29" />
      <path
         fill="none"
         stroke="#000000"
         paint-order="fill stroke markers"
         d="m 736.16279,261.62383 c 0,2.76142 -2.23857,5 -5,5 -2.76142,0 -5,-2.23858 -5,-5 0,-2.76142 2.23858,-5 5,-5 2.76143,0 5,2.23858 5,5 z"
         stroke-opacity="1"
         stroke-linecap="round"
         stroke-linejoin="round"
         stroke-miterlimit="10"
         id="path31" />
      <g
         transform="scale(27)"
         id="g37">
        <g
           transform="translate(27.407407,9.3126296)"
           id="g35">
          <path
             fill="#1565c0"
             stroke="none"
             paint-order="stroke fill markers"
             d="m 0.16,-0.078 0.134,-0.537 q 0.004,-0.016 0.004,-0.019 0,-0.012 -0.016,-0.015 H 0.281 0.28 q -0.003,0 -0.009,-0.001 -0.017,-0.002 -0.038,-0.002 -0.026,0 -0.028,-0.011 0,-0.018 0.015,-0.02 H 0.221 0.222 0.234 0.57 q 0.115,0 0.164,0.068 0.022,0.032 0.022,0.07 0,0.081 -0.09,0.141 -0.001,0 -0.002,0.001 -0.053,0.034 -0.117,0.046 0.102,0.012 0.14,0.08 0.015,0.028 0.015,0.061 0,0.073 -0.07,0.137 L 0.631,-0.078 Q 0.545,0 0.426,0 H 0.069 q -0.025,0 -0.027,-0.011 0,-0.018 0.015,-0.02 h 0.012 q 0.065,0 0.078,-0.014 0.006,-0.007 0.012,-0.028 0,-0.001 0.001,-0.005 m 0.151,-0.288 h 0.146 q 0.099,0 0.163,-0.072 0.045,-0.051 0.045,-0.111 0,-0.073 -0.06,-0.095 Q 0.584,-0.652 0.556,-0.652 H 0.427 q -0.036,0 -0.044,0.01 v 0 0.001 H 0.382 v 0.001 q -0.004,0.006 -0.009,0.026 l -0.062,0.248 m -0.045,0.335 h 0.136 q 0.096,0 0.159,-0.072 Q 0.609,-0.159 0.609,-0.227 0.609,-0.3 0.557,-0.33 0.531,-0.344 0.494,-0.344 H 0.305 l -0.069,0.279 q -0.005,0.018 -0.005,0.023 0,0.008 0.009,0.01 v 0 0 h 0.004 q 0.006,0.001 0.022,0.001 z"
             id="path33" />
        </g>
      </g>
    </g>
  </g>
</svg>
