<svg version="1.1" xmlns="http://www.w3.org/2000/svg" xmlns:xlink="http://www.w3.org/1999/xlink" width="1184" height="753"><defs><clipPath id="wLHGrvqlIRbT"><path fill="none" stroke="none" d=" M 0 0 L 1184 0 L 1184 753 L 0 753 L 0 0 Z"/></clipPath></defs><g transform="scale(1,1)" clip-path="url(#wLHGrvqlIRbT)"><g><rect fill="rgb(255,255,255)" stroke="none" x="0" y="0" width="1184" height="753" fill-opacity="1"/><path fill="none" stroke="rgb(0,0,0)" paint-order="fill stroke markers" d=" M 0 540.4769885366828 L 1.6065130851052345 541.21875 L 3.699999999999932 542.1866705240877 L 6.704881547250352 543.571875 L 7.399999999999864 543.8927533886082 L 11.099999999999909 545.5943769475698 L 14.799999999999955 547.2914793263777 L 16.957181291221673 548.278125 L 18.5 548.9847868131545 L 22.199999999999932 550.674246049531 L 25.899999999999977 552.3581894144356 L 27.28052782994655 552.984375 L 29.59999999999991 554.0380251701348 L 33.299999999999955 555.7138082772198 L 37 557.3846610119006 L 37.68052365854214 557.690625 L 40.69999999999993 559.0503012284817 L 42.913877708581936 560.04375 L 44.39999999999998 560.7116769810006 L 48.09999999999991 562.36865178839 L 51.799999999999955 564.0193433534878 L 55.5 565.6655507329435 L 58.740684877396575 567.103125 L 62.89999999999998 568.9427682979218 L 66.59999999999997 570.57301449913 L 70.29999999999995 572.1984866015235 L 74.79093913097716 574.1625 L 77.69999999999993 575.4315318267238 L 80.19524825878614 576.515625 L 81.39999999999998 577.0399765905705 L 85.09999999999997 578.6426289555931 L 85.6251024972928 578.86875 L 88.79999999999995 580.238436502337 L 91.08933006730331 581.221875 L 92.49999999999989 581.8289813444405 L 96.19999999999987 583.4136682971015 L 99.89999999999992 584.9909236367553 L 102.10795592022481 585.9281249999999 L 103.59999999999991 586.562656774751 L 107.2999999999999 588.1282795702936 L 110.99999999999989 589.6860401270795 L 113.26263386554291 590.634375 L 114.69999999999993 591.2380079728605 L 118.39999999999986 592.7833951175858 L 122.09999999999991 594.3206744428977 L 124.56628768749238 595.340625 L 125.79999999999995 595.8518788184809 L 129.49999999999994 597.3757808342491 L 130.27745319015378 597.69375 L 133.19999999999993 598.891545678211 L 136.0334753334903 600.046875 L 136.89999999999992 600.4009408390058 L 140.59999999999985 601.9020246273466 L 144.2999999999999 603.3951918054192 L 147.68064892209162 604.753125 L 151.69999999999993 606.3585240246103 L 155.39999999999992 607.8279570616867 L 159.53326717329662 609.4593749999999 L 162.79999999999995 610.7414728585936 L 165.54499434180798 611.8125 L 166.4999999999999 612.1859783913727 L 170.19999999999993 613.6209252935103 L 171.61545533162808 614.165625 L 173.89999999999992 615.0468469442548 L 177.5999999999999 616.4649462083293 L 181.29999999999995 617.8716012986367 L 183.947703524843 618.871875 L 184.99999999999994 619.2703886601795 L 188.7 620.6587772035837 L 192.39999999999992 622.0373075516322 L 196.0999999999999 623.4068367783611 L 199.79999999999995 624.7643599673038 L 203.0016629876668 625.93125 L 207.19999999999993 627.4498990146708 L 209.5291805444635 628.284375 L 210.89999999999998 628.7767862676136 L 214.5999999999999 630.0921939977873 L 216.14971342870416 630.6375 L 218.29999999999995 631.396160900556 L 221.99999999999994 632.6894256497698 L 225.69999999999993 633.9696106536318 L 229.70748082490974 635.34375 L 233.09999999999997 636.495185375949 L 236.6700761677194 637.696875 L 240.4999999999999 638.9708338234948 L 244.19999999999993 640.190398566338 L 247.89999999999992 641.3943977636432 L 251.03098150766715 642.403125 L 251.5999999999999 642.5869877101983 L 255.2999999999999 643.7636056858175 L 258.9999999999999 644.9281819597575 L 262.6999999999999 646.0760660883784 L 266.0680071812859 647.109375 L 270.09999999999997 648.3292603092474 L 273.79999999999995 649.4343475797689 L 277.5 650.5205348649853 L 281.2 651.5931089896286 L 284.9 652.6470932599784 L 288.59999999999997 653.6854878908819 L 290.35519465486567 654.16875 L 292.29999999999995 654.705987224024 L 295.99999999999994 655.7084358945149 L 299.0552698998726 656.521875 L 299.69999999999993 656.6941073329178 L 303.3999999999999 657.6587370062659 L 307.09999999999997 658.6065567066853 L 310.79999999999995 659.5329971068581 L 314.49999999999994 660.4398821655549 L 317.7865736984666 661.228125 L 321.9 662.1913970379605 L 325.59999999999997 663.0353932122518 L 329.29999999999995 663.8571818974699 L 333 664.6543919992487 L 339.1885157688704 665.9343749999999 L 340.4 666.1809600152715 L 344.09999999999997 666.9055076792545 L 347.79999999999995 667.6059336936491 L 351.5 668.281396636653 L 355.19999999999993 668.9265280380114 L 358.9 669.5449126019494 L 362.59999999999997 670.1356366932199 L 365.928098067581 670.640625 L 370 671.2257459065395 L 373.7 671.7235135267492 L 377.4 672.189453380313 L 381.09999999999997 672.6223731912754 L 384.54969504473263 672.99375 L 388.5 673.3810669385618 L 392.2 673.7045766527879 L 395.9 673.9899226824022 L 399.6 674.235614421422 L 403.3 674.4400877125871 L 407 674.6017008362494 L 410.7 674.7187302462314 L 414.4 674.7893660345887 L 418.0999999999999 674.8117071057568 L 421.79999999999995 674.7837560389819 L 425.49999999999994 674.7034136162155 L 429.19999999999993 674.5684729907678 L 432.9 674.3766134699634 L 436.59999999999997 674.1253938828015 L 440.29999999999995 673.8122455011672 L 443.9999999999999 673.4344644804594 L 447.6627798151887 672.99375 L 451.4 672.4683432888637 L 455.0999999999999 671.8730132900507 L 458.79999999999995 671.1997711941015 L 461.55246114151817 670.640625 L 462.49999999999994 670.4430081141744 L 466.19999999999993 669.5941471206245 L 469.9 668.6548160334626 L 471.2285360849849 668.2874999999999 L 473.5999999999999 667.6134477270145 L 477.29999999999995 666.4673895849717 L 478.8913553343985 665.9343749999999 L 480.99999999999994 665.2075414427335 L 484.69999999999993 663.8292013706304 L 485.32234756473645 663.58125 L 488.4 662.3180180525273 L 490.8738215104259 661.228125 L 492.09999999999997 660.671192383124 L 495.79999999999995 658.8766165700861 L 499.49999999999994 656.9159900829329 L 500.201359812347 656.521875 L 503.19999999999993 654.7813594307468 L 504.1990015125873 654.16875 L 506.9 652.4565552830254 L 507.8602036286264 651.815625 L 510.59999999999997 649.9235933925731 L 511.23600936779155 649.4625 L 514.3 647.1624408955586 L 517.2692372303643 644.75625 L 518 644.1421388853394 L 519.9832277243584 642.403125 L 521.6999999999999 640.8410878423601 L 522.5351091523597 640.05 L 524.9338947666179 637.696875 L 527.1863580106293 635.34375 L 529.1 633.2485501274333 L 531.3389694183912 630.6375 L 532.8 628.8601071763203 L 533.2577310468462 628.284375 L 535.0699891207299 625.93125 L 536.5 624.0003865892012 L 538.4412900045276 621.2249999999999 L 540.0146671724262 618.871875 L 541.5030669507614 616.51875 L 542.9306320711228 614.165625 L 543.9 612.5086403946716 L 544.2964072318803 611.8125 L 545.594752594473 609.4593749999999 L 546.8436732610561 607.10625 L 547.6 605.6302690186175 L 548.0384020682235 604.753125 L 549.1771824794633 602.4 L 550.2732059919067 600.046875 L 551.3 597.7568859034382 L 552.3290175393666 595.340625 L 553.2931295822575 592.9875 L 554.2213255093044 590.634375 L 555 588.5859474826478 L 555.9629132797637 585.9281249999999 L 556.7808898097088 583.575 L 557.568432346955 581.221875 L 558.3265743010002 578.86875 L 558.6999999999999 577.6689167815065 L 559.0522991964489 576.515625 L 559.7468831678187 574.1625 L 560.4154874325892 571.809375 L 561.0589645984044 569.45625 L 561.6781356933063 567.103125 L 562.2737916661496 564.75 L 562.4 564.2342135906058 L 562.8422974380807 562.396875 L 563.3879350909967 560.04375 L 563.9126565601107 557.690625 L 564.417125171635 555.3375 L 564.9019816089235 552.984375 L 565.3678449287112 550.63125 L 565.8153135253538 548.278125 L 566.1 546.7218468223988 L 566.2437481049125 545.925 L 566.6527684594394 543.571875 L 567.0453393277368 541.21875 L 567.4219711992303 538.8656249999999 L 567.7831587303248 536.5124999999999 L 568.1293814191217 534.159375 L 568.4611042483297 531.80625 L 568.7787782981668 529.453125 L 569.0828413309381 527.0999999999999 L 569.3737183488662 524.7468749999999 L 569.6518221266589 522.39375 L 569.8 521.0840729577793 L 569.9167891394468 520.040625 L 570.168940694758 517.6875 L 570.409632500178 515.3343749999999 L 570.6392253499406 512.9812499999999 L 570.858070511366 510.62812499999995 L 571.0665101145352 508.275 L 571.2648775258498 505.921875 L 571.4534977063266 503.56874999999997 L 571.6326875554262 501.21562499999993 L 571.8027562411713 498.86249999999995 L 571.9640055172689 496.509375 L 572.1167300279113 494.15625 L 572.261217600894 491.80312499999997 L 572.3977495296554 489.44999999999993 L 572.5266008448094 487.09687499999995 L 572.6480405757148 484.74375 L 572.7623320025933 482.39062499999994 L 572.8697328996868 480.0374999999999 L 572.9704957699142 477.68437499999993 L 573.0648680714706 475.33124999999995 L 573.1530924367844 472.978125 L 573.2354068842322 470.62499999999994 L 573.3120450229908 468.27187499999997 L 573.3832362513841 465.91875 L 573.4492059490743 463.56562499999995 L 573.5 461.6058943870555 L 573.5661702426981 458.859375 L 573.6176543508673 456.50624999999997 L 573.6648059748879 454.153125 L 573.7078309266824 451.79999999999995 L 573.7469321617293 449.446875 L 573.782309932786 447.09374999999994 L 573.814161939949 444.74062499999997 L 573.8426834772796 442.38749999999993 L 573.8680675762098 440.03437499999995 L 573.8905051459373 437.68125 L 573.9101851110116 435.32812499999994 L 573.927294546307 432.97499999999997 L 573.9420188095716 430.62187499999993 L 573.954541671736 428.26874999999995 L 573.9650454451629 425.9156249999999 L 573.9737111100092 423.56249999999994 L 573.9807184388732 421.2093749999999 L 573.9862461198924 418.85624999999993 L 573.990471878456 416.50312499999995 L 573.9935725976907 414.1499999999999 L 573.9957244378787 411.796875 L 573.9971029549628 409.44374999999997 L 573.9978832182909 407.090625 L 573.998239927753 404.73749999999995 L 573.9983475304591 402.384375 L 573.9983803371089 400.03125 L 573.998512638201 397.67812499999997 L 573.99891882023 395.325 L 573.9997734820203 392.97187499999995 L 574.0012515513442 390.6187499999999 L 574.0035284019747 388.26562499999994 L 574.0067799713219 385.91249999999997 L 574.0111828788059 383.55937499999993 L 574.0169145451181 381.20624999999995 L 574.0241533125262 378.8531249999999 L 574.0330785663807 376.49999999999994 L 574.0438708579825 374.14687499999997 L 574.0567120289746 371.79375 L 574.0717853374243 369.440625 L 574.0892755857664 367.0875 L 574.1093692507803 364.734375 L 574.1322546157827 362.38124999999997 L 574.1581219052163 360.028125 L 574.1871634218263 357.67499999999995 L 574.2195736866189 355.321875 L 574.2555495818034 352.96874999999994 L 574.2952904969263 350.61562499999997 L 574.3389984784138 348.26249999999993 L 574.3868783827456 345.90937499999995 L 574.4391380334929 343.55625 L 574.4959883824624 341.20312499999994 L 574.557643675197 338.84999999999997 L 574.6243216210952 336.49687499999993 L 574.6962435684227 334.14374999999995 L 574.7736346845005 331.7906249999999 L 574.8567241413684 329.43749999999994 L 574.945745307234 327.0843749999999 L 575.0409359440343 324.73124999999993 L 575.1425384114518 322.37812499999995 L 575.250799877742 320.0249999999999 L 575.3659725377497 317.671875 L 575.4883138385077 315.31874999999997 L 575.6180867128337 312.96562499999993 L 575.7555598213613 310.61249999999995 L 575.9010078034635 308.259375 L 576.0547115375549 305.90625 L 576.2169584112785 303.55312499999997 L 576.3880426021178 301.19999999999993 L 576.5682653689996 298.84687499999995 L 576.7579353554862 296.4937499999999 L 576.9573689051899 294.14062499999994 L 577.1668903900783 291.7874999999999 L 577.3879682876538 289.43437499999993 L 577.6201339858405 287.08124999999995 L 577.8635489970314 284.7281249999999 L 578.1185813193057 282.37499999999994 L 578.385609228592 280.0218749999999 L 578.6650217205366 277.66874999999993 L 578.9572189723777 275.3156249999999 L 579.2626128259711 272.9624999999999 L 579.5816272931797 270.6093749999999 L 579.9146990849206 268.2562499999999 L 580.2622781652437 265.90312499999993 L 580.624828331909 263.54999999999995 L 580.9 261.8346696065543 L 581.003661254953 261.196875 L 581.4008758246081 258.84375 L 581.8148083415276 256.49062499999997 L 582.2459990015849 254.1375 L 582.695005954917 251.78437499999995 L 583.1624061258398 249.43124999999998 L 583.6487960755435 247.07812499999994 L 584.1547929102593 244.72499999999997 L 584.6 242.73239219728626 L 585.2343977385858 240.01874999999995 L 585.8089801780264 237.66562499999995 L 586.406302024749 235.31249999999994 L 587.0271228340208 232.95937499999994 L 587.672230640506 230.60624999999993 L 588.3 228.40118682740138 L 589.0469742524367 225.89999999999995 L 589.7784583221663 223.54687499999991 L 590.5383180527011 221.19374999999994 L 591.3275420415496 218.8406249999999 L 592 216.90732694498772 L 593.0109198317151 214.13437499999992 L 593.9062243755436 211.78124999999991 L 594.8361199684758 209.4281249999999 L 595.6999999999999 207.32133331784706 L 596.8202465707079 204.72187499999995 L 597.8768125993462 202.36874999999998 L 598.9744705503571 200.01562499999994 L 599.4 199.1323660917071 L 600.1256191153972 197.66249999999997 L 601.3287008914829 195.30937499999993 L 602.579187795305 192.95624999999995 L 603.0999999999999 192.0076497412771 L 603.8917578643596 190.60312499999995 L 605.2656285364844 188.24999999999994 L 606.6945974208568 185.896875 L 608.2055589392303 183.54375000000002 L 609.7802494233106 181.19062499999998 L 610.4999999999999 180.15066878756073 L 611.4369945155261 178.8375 L 613.1770583589721 176.48437499999997 L 614.1999999999999 175.14957501452824 L 615.0062427923208 174.13125 L 616.9352313049443 171.77812499999996 L 617.9 170.64206898188706 L 618.9701965098332 169.42499999999998 L 621.1166053018987 167.07187499999998 L 621.5999999999999 166.55878214663232 L 623.3994343469282 164.71874999999997 L 625.3 162.8484852581945 L 625.8103350144238 162.36562499999997 L 628.3824811176003 160.01249999999996 L 629 159.46638518288836 L 631.1314637686799 157.65937499999995 L 632.7 156.37680236732461 L 634.0690011499433 155.30624999999998 L 636.4 153.54656854125304 L 637.2241370929021 152.95312499999994 L 640.1 150.95231489400123 L 640.6324098546129 150.59999999999997 L 643.8 148.57311556285288 L 644.3377276710864 148.24687499999993 L 647.5 146.390201820544 L 648.3949348176275 145.89374999999995 L 651.2 144.38671383795264 L 652.8733840245798 143.54062499999992 L 654.9 142.54748454598706 L 657.8620077576511 141.18749999999994 L 658.5999999999999 140.858850996137 L 662.3 139.31398336036744 L 663.5317386532438 138.8343749999999 L 666 137.90116767587682 L 669.6999999999999 136.60764828014504 L 673.4 135.43406137316305 L 677.0999999999999 134.36371117469008 L 677.9843070480965 134.1281249999999 L 680.8 133.39823529641365 L 684.4999999999999 132.52670100343408 L 688.0441383038847 131.77499999999992 L 691.8999999999999 131.04897025373765 L 695.5999999999999 130.43385991687865 L 699.3 129.89403373202612 L 702.9999999999999 129.42623165808027 L 706.6999999999999 129.0310621886062 L 710.3999999999999 128.7012191168373 L 714.1 128.43392673472283 L 717.8 128.22658752759259 L 721.5 128.0767330824753 L 725.2 127.9820169139989 L 728.9 127.94020774336332 L 732.6 127.94918319841986 L 736.3 128.00692390539245 L 740 128.11150794505272 L 743.6999999999999 128.26110564825484 L 747.4 128.45397470764573 L 751.0999999999999 128.68845558412056 L 754.8 128.96296718820128 L 758.5 129.2760028179925 L 760.0306412798598 129.42187499999994 L 762.1999999999999 129.62770343455838 L 765.9 130.0164629937779 L 769.5999999999999 130.4398144876982 L 773.3 130.896494313968 L 777 131.38529736568245 L 779.766122920215 131.77499999999992 L 780.7 131.90602009402255 L 784.4 132.45960352599553 L 788.1 133.04211332595924 L 791.8 133.65253726774512 L 794.553165072461 134.1281249999999 L 795.5 134.2910325082994 L 799.2 134.95895702590855 L 802.9 135.6520720394671 L 806.5999999999999 136.36952699877054 L 807.152961866519 136.48124999999993 L 810.3 137.11467762386587 L 814 137.88334310735723 L 817.6999999999999 138.67402445603386 L 818.4247925566413 138.8343749999999 L 821.4 139.4901811948398 L 825.0999999999999 140.32798233506168 L 828.8 141.18572774685367 L 832.5 142.06821001352824 L 836.1999999999998 142.96937913620548 L 838.4909167497283 143.54062499999992 L 839.8999999999999 143.89075917901152 L 843.5999999999999 144.83314857407805 L 847.3 145.79249606361088 L 850.9999999999999 146.77342648014698 L 854.6999999999998 147.770852760678 L 856.4305987618866 148.24687499999993 L 858.3999999999999 148.78679423423807 L 862.0999999999999 149.8204115703714 L 865.8 150.87001279183585 L 869.5 151.93804090948035 L 872.9705846617258 152.95312499999994 L 876.8999999999999 154.1207716416205 L 880.5999999999999 155.23427060581798 L 884.3 156.36578761251627 L 888 157.50965222921903 L 891.6999999999999 158.67041680858057 L 895.3999999999999 159.84320327480415 L 895.9255352513242 160.01249999999996 L 899.0999999999999 161.03212309288133 L 902.8 162.2324683823956 L 906.4999999999999 163.448498476317 L 910.3296218594405 164.71874999999997 L 913.8999999999999 165.91725588522976 L 917.3110679152813 167.07187499999998 L 921.3 168.43622238978244 L 925 169.71317199830992 L 928.7 171.0033328602601 L 930.9013457315809 171.77812499999996 L 932.4 172.30418170875504 L 936.0999999999999 173.61662402103613 L 939.8 174.94050573650796 L 943.5 176.27422887430694 L 944.0763811758281 176.48437499999997 L 947.1999999999999 177.62031265104108 L 950.8999999999999 178.9749780870431 L 954.5999999999999 180.3418602486998 L 956.8804804569018 181.19062499999998 L 958.3 181.71763497546434 L 962 183.10349074537766 L 965.6999999999999 184.49962056411553 L 969.3820906883597 185.896875 L 973.0999999999999 187.31938686294788 L 976.8 188.74278043986226 L 981.5955034471574 190.60312499999995 L 984.1999999999999 191.6175268335187 L 987.6169876640267 192.95624999999995 L 991.5999999999999 194.52651678158784 L 993.5722735599733 195.30937499999993 L 995.2999999999998 195.99362942687983 L 998.9999999999998 197.4684384978287 L 1002.6999999999998 198.95268911142338 L 1005.3361613605214 200.01562499999994 L 1006.3999999999999 200.44364843104822 L 1010.0999999999999 201.94282826435963 L 1011.1439552586799 202.36874999999998 L 1013.8 203.45009304757232 L 1016.907697665971 204.72187499999995 L 1017.5 204.9637571190441 L 1021.1999999999999 206.4858760140303 L 1024.8999999999999 208.0150532839071 L 1028.3049264779168 209.4281249999999 L 1032.3 211.09405038459298 L 1033.9385602038062 211.78124999999991 L 1036 212.64408953891032 L 1039.5437647984024 214.13437499999992 L 1043.3999999999999 215.76400554204 L 1045.1033995910939 216.48749999999993 L 1047.1 217.3339038516755 L 1050.6383018594122 218.8406249999999 L 1054.5 220.49256914080755 L 1056.1312238343912 221.19374999999994 L 1058.1999999999998 222.0813687528535 L 1061.6010493380786 223.54687499999991 L 1065.6 225.27673110516702 L 1069.3 226.88351624022607 L 1072.443151671224 228.25312499999993 L 1073 228.49533883661292 L 1076.7 230.1136331661445 L 1080.4 231.73752749463836 L 1083.1745636966903 232.95937499999994 L 1084.1 233.36621889828433 L 1087.8 235.00055909391256 L 1088.5027557221783 235.31249999999994 L 1091.5 236.64072327749196 L 1093.8042013908175 237.66562499999995 L 1095.1999999999998 238.28545332279774 L 1098.9 239.93492557066045 L 1102.6 241.59055495594674 L 1106.3 243.25052760066887 L 1110 244.91478578029384 L 1113.6999999999998 246.58459610645673 L 1114.78937566349 247.07812499999994 L 1117.4 248.25904729875603 L 1119.9827359489761 249.43124999999998 L 1121.1 249.93757144794486 L 1124.7999999999997 251.62053465132456 L 1128.5 253.30873032413436 L 1132.1999999999998 255.00079384049388 L 1135.4498920009864 256.49062499999997 L 1139.6 258.39739966959155 L 1143.3000000000002 260.10230358311765 L 1145.66925819003 261.196875 L 1147 261.810825379897 L 1150.6999999999998 263.5229766031963 L 1154.4 265.240047822129 L 1158.1 266.9605469518009 L 1161.7999999999997 268.68442409454065 L 1165.921084873886 270.6093749999999 L 1169.1999999999998 272.1438975616087 L 1170.9445615677664 272.9624999999999 L 1172.8999999999999 273.87892674313537 L 1175.9576082395242 275.3156249999999 L 1176.6 275.61710336659957 L 1180.2999999999997 277.35902112857883 L 1180.9558889262903 277.66874999999993 L 1183.9999999999998 279.1045873574362" stroke-opacity="0.8" stroke-linecap="round" stroke-linejoin="round" stroke-miterlimit="10" stroke-width="2.5"/><path fill="none" stroke="rgb(0,0,0)" paint-order="fill stroke markers" d=" M 112.47580034108245 590.3067733680373 L 961.669347358808 196.0125822753099" stroke-opacity="0.6980392156862745" stroke-linejoin="round" stroke-miterlimit="10" stroke-width="2.5" stroke-dasharray="6.5,4"/><path fill="rgb(0,0,0)" stroke="none" paint-order="stroke fill markers" fill-rule="evenodd" d=" M 977.0883211657513 188.85330530477756 L 963.4591666014411 199.86732572704574 L 959.8795281161748 192.15783882357408 Z" fill-opacity="0.6980392156862745"/><path fill="rgb(21,101,192)" stroke="none" paint-order="stroke fill markers" d=" M 117.47580034108245 590.3067733680373 C 117.47580034108245 593.0681971171913 115.23722409023641 595.3067733680373 112.47580034108245 595.3067733680373 C 109.71437659192848 595.3067733680373 107.47580034108245 593.0681971171913 107.47580034108245 590.3067733680373 C 107.47580034108245 587.5453496188833 109.71437659192848 585.3067733680373 112.47580034108245 585.3067733680373 C 115.23722409023641 585.3067733680373 117.47580034108245 587.5453496188833 117.47580034108245 590.3067733680373 Z" fill-opacity="1"/><path fill="none" stroke="rgb(0,0,0)" paint-order="fill stroke markers" d=" M 117.47580034108245 590.3067733680373 C 117.47580034108245 593.0681971171913 115.23722409023641 595.3067733680373 112.47580034108245 595.3067733680373 C 109.71437659192848 595.3067733680373 107.47580034108245 593.0681971171913 107.47580034108245 590.3067733680373 C 107.47580034108245 587.5453496188833 109.71437659192848 585.3067733680373 112.47580034108245 585.3067733680373 C 115.23722409023641 585.3067733680373 117.47580034108245 587.5453496188833 117.47580034108245 590.3067733680373 Z" stroke-opacity="1" stroke-linecap="round" stroke-linejoin="round" stroke-miterlimit="10"/><g transform="scale(27,27)"><g transform="translate(4.481481481481482,21.090407407407408)"><path fill="rgb(21,101,192)" stroke="none" paint-order="stroke fill markers" d=" M 0.179 -0.115 L 0.527 -0.6990000000000001 Q 0.537 -0.715 0.553 -0.716 Q 0.5680000000000001 -0.716 0.5700000000000001 -0.706 Q 0.5710000000000001 -0.7030000000000001 0.5720000000000001 -0.6920000000000001 L 0.633 -0.067 Q 0.636 -0.042 0.645 -0.037 L 0.646 -0.037 L 0.646 -0.037 L 0.646 -0.037 L 0.646 -0.037 L 0.646 -0.036000000000000004 Q 0.658 -0.031 0.6980000000000001 -0.031 Q 0.72 -0.031 0.721 -0.02 Q 0.721 0 0.7030000000000001 0 L 0.591 -0.003 L 0.59 -0.003 L 0.466 0 L 0.465 0 Q 0.451 0 0.451 -0.011 Q 0.459 -0.03 0.47500000000000003 -0.031 Q 0.547 -0.031 0.547 -0.064 Q 0.547 -0.063 0.531 -0.231 L 0.28 -0.231 L 0.20400000000000001 -0.10300000000000001 Q 0.19 -0.078 0.19 -0.066 Q 0.19 -0.035 0.23700000000000002 -0.031 Q 0.253 -0.031 0.253 -0.019 Q 0.253 0 0.234 0 L 0.138 -0.003 L 0.134 -0.003 L 0.05 0 L 0.048 0 Q 0.035 0 0.035 -0.011 Q 0.035 -0.029 0.05 -0.03 L 0.05 -0.031 L 0.056 -0.031 Q 0.11900000000000001 -0.035 0.159 -0.085 Q 0.169 -0.098 0.179 -0.115 M 0.299 -0.262 L 0.528 -0.262 L 0.496 -0.592 L 0.299 -0.262 Z"/></g></g><path fill="rgb(21,101,192)" stroke="none" paint-order="stroke fill markers" d=" M 982.0883211657513 188.8533053047776 C 982.0883211657513 191.61472905393157 979.8497449149053 193.8533053047776 977.0883211657513 193.8533053047776 C 974.3268974165973 193.8533053047776 972.0883211657513 191.61472905393157 972.0883211657513 188.8533053047776 C 972.0883211657513 186.09188155562362 974.3268974165973 183.8533053047776 977.0883211657513 183.8533053047776 C 979.8497449149053 183.8533053047776 982.0883211657513 186.09188155562362 982.0883211657513 188.8533053047776 Z" fill-opacity="1"/><path fill="none" stroke="rgb(0,0,0)" paint-order="fill stroke markers" d=" M 982.0883211657513 188.8533053047776 C 982.0883211657513 191.61472905393157 979.8497449149053 193.8533053047776 977.0883211657513 193.8533053047776 C 974.3268974165973 193.8533053047776 972.0883211657513 191.61472905393157 972.0883211657513 188.8533053047776 C 972.0883211657513 186.09188155562362 974.3268974165973 183.8533053047776 977.0883211657513 183.8533053047776 C 979.8497449149053 183.8533053047776 982.0883211657513 186.09188155562362 982.0883211657513 188.8533053047776 Z" stroke-opacity="1" stroke-linecap="round" stroke-linejoin="round" stroke-miterlimit="10"/><g transform="scale(27,27)"><g transform="translate(36.51851851851852,6.238555555555555)"><path fill="rgb(21,101,192)" stroke="none" paint-order="stroke fill markers" d=" M 0.16 -0.078 L 0.294 -0.615 Q 0.298 -0.631 0.298 -0.634 Q 0.298 -0.646 0.28200000000000003 -0.649 L 0.281 -0.649 L 0.28 -0.649 Q 0.277 -0.649 0.271 -0.65 Q 0.254 -0.652 0.233 -0.652 Q 0.20700000000000002 -0.652 0.20500000000000002 -0.663 Q 0.20500000000000002 -0.681 0.22 -0.683 L 0.221 -0.683 L 0.222 -0.683 L 0.234 -0.683 L 0.5700000000000001 -0.683 Q 0.685 -0.683 0.734 -0.615 Q 0.756 -0.583 0.756 -0.545 Q 0.756 -0.464 0.666 -0.404 Q 0.665 -0.404 0.664 -0.403 Q 0.611 -0.369 0.547 -0.357 Q 0.649 -0.34500000000000003 0.687 -0.277 Q 0.7020000000000001 -0.249 0.7020000000000001 -0.216 Q 0.7020000000000001 -0.14300000000000002 0.632 -0.079 L 0.631 -0.078 Q 0.545 0 0.426 0 L 0.069 0 Q 0.044 0 0.042 -0.011 Q 0.042 -0.029 0.057 -0.031 L 0.069 -0.031 Q 0.134 -0.031 0.147 -0.045 Q 0.153 -0.052000000000000005 0.159 -0.073 Q 0.159 -0.074 0.16 -0.078 M 0.311 -0.366 L 0.457 -0.366 Q 0.556 -0.366 0.62 -0.438 Q 0.665 -0.489 0.665 -0.549 Q 0.665 -0.622 0.605 -0.644 Q 0.584 -0.652 0.556 -0.652 L 0.427 -0.652 Q 0.391 -0.652 0.383 -0.642 L 0.383 -0.642 L 0.383 -0.641 L 0.382 -0.641 L 0.382 -0.64 Q 0.378 -0.634 0.373 -0.614 L 0.311 -0.366 M 0.266 -0.031 L 0.402 -0.031 Q 0.498 -0.031 0.561 -0.10300000000000001 Q 0.609 -0.159 0.609 -0.227 Q 0.609 -0.3 0.557 -0.33 Q 0.531 -0.34400000000000003 0.494 -0.34400000000000003 L 0.305 -0.34400000000000003 L 0.23600000000000002 -0.065 Q 0.231 -0.047 0.231 -0.042 Q 0.231 -0.034 0.24 -0.032 L 0.24 -0.032 L 0.24 -0.032 L 0.244 -0.032 Q 0.25 -0.031 0.266 -0.031 Z"/></g></g></g></g></svg>